<svg width="72" height="72" viewBox="0 0 72 72" fill="none" xmlns="http://www.w3.org/2000/svg">
<mask id="mask0_82_861" style="mask-type:alpha" maskUnits="userSpaceOnUse" x="0" y="0" width="72" height="72">
<rect width="71.51" height="71.51" fill="#D9D9D9"/>
</mask>
<g mask="url(#mask0_82_861)">
<path d="M14.8979 62.5712C13.2591 62.5712 11.8562 61.9877 10.6892 60.8207C9.52222 59.6537 8.93872 58.2508 8.93872 56.6121V14.8979C8.93872 13.2591 9.52222 11.8562 10.6892 10.6892C11.8562 9.52222 13.2591 8.93872 14.8979 8.93872H56.6121C58.2508 8.93872 59.6537 9.52222 60.8207 10.6892C61.9877 11.8562 62.5712 13.2591 62.5712 14.8979V56.6121C62.5712 58.2508 61.9877 59.6537 60.8207 60.8207C59.6537 61.9877 58.2508 62.5712 56.6121 62.5712H14.8979ZM14.8979 56.6121H56.6121V14.8979H14.8979V56.6121Z" fill="white"/>
</g>
</svg>
