<svg width="72" height="72" viewBox="0 0 72 72" fill="none" xmlns="http://www.w3.org/2000/svg">
<mask id="mask0_86_2528" style="mask-type:alpha" maskUnits="userSpaceOnUse" x="0" y="0" width="72" height="72">
<rect width="71.51" height="71.51" fill="#D9D9D9"/>
</mask>
<g mask="url(#mask0_86_2528)">
<path d="M10.9591 65.5508C8.19768 65.5508 5.95911 63.3122 5.95911 60.5508V52.6733C5.95911 49.9118 8.19768 47.6733 10.9591 47.6733H18.8366C21.598 47.6733 23.8366 49.9118 23.8366 52.6733V60.5508C23.8366 63.3122 21.598 65.5508 18.8366 65.5508H10.9591ZM31.8162 65.5508C29.0548 65.5508 26.8162 63.3122 26.8162 60.5508V52.6733C26.8162 49.9118 29.0548 47.6733 31.8162 47.6733H39.6937C42.4551 47.6733 44.6937 49.9118 44.6937 52.6733V60.5508C44.6937 63.3122 42.4551 65.5508 39.6937 65.5508H31.8162ZM52.6733 65.5508C49.9118 65.5508 47.6733 63.3122 47.6733 60.5508V52.6733C47.6733 49.9118 49.9118 47.6733 52.6733 47.6733H60.5508C63.3122 47.6733 65.5508 49.9118 65.5508 52.6733V60.5508C65.5508 63.3122 63.3122 65.5508 60.5508 65.5508H52.6733ZM10.9591 44.6937C8.19768 44.6937 5.95911 42.4551 5.95911 39.6937V31.8162C5.95911 29.0548 8.19768 26.8162 10.9591 26.8162H18.8366C21.598 26.8162 23.8366 29.0548 23.8366 31.8162V39.6937C23.8366 42.4551 21.598 44.6937 18.8366 44.6937H10.9591ZM31.8162 44.6937C29.0548 44.6937 26.8162 42.4551 26.8162 39.6937V31.8162C26.8162 29.0548 29.0548 26.8162 31.8162 26.8162H39.6937C42.4551 26.8162 44.6937 29.0548 44.6937 31.8162V39.6937C44.6937 42.4551 42.4551 44.6937 39.6937 44.6937H31.8162ZM52.6733 44.6937C49.9118 44.6937 47.6733 42.4551 47.6733 39.6937V31.8162C47.6733 29.0548 49.9118 26.8162 52.6733 26.8162H60.5508C63.3122 26.8162 65.5508 29.0548 65.5508 31.8162V39.6937C65.5508 42.4551 63.3122 44.6937 60.5508 44.6937H52.6733ZM10.9591 23.8366C8.19768 23.8366 5.95911 21.598 5.95911 18.8366V10.9591C5.95911 8.19768 8.19768 5.95911 10.9591 5.95911H18.8366C21.598 5.95911 23.8366 8.19768 23.8366 10.9591V18.8366C23.8366 21.598 21.598 23.8366 18.8366 23.8366H10.9591ZM31.8162 23.8366C29.0548 23.8366 26.8162 21.598 26.8162 18.8366V10.9591C26.8162 8.19768 29.0548 5.95911 31.8162 5.95911H39.6937C42.4551 5.95911 44.6937 8.19768 44.6937 10.9591V18.8366C44.6937 21.598 42.4551 23.8366 39.6937 23.8366H31.8162ZM52.6733 23.8366C49.9118 23.8366 47.6733 21.598 47.6733 18.8366V10.9591C47.6733 8.19768 49.9118 5.95911 52.6733 5.95911H60.5508C63.3122 5.95911 65.5508 8.19768 65.5508 10.9591V18.8366C65.5508 21.598 63.3122 23.8366 60.5508 23.8366H52.6733Z" fill="white"/>
</g>
</svg>
