<svg width="72" height="72" viewBox="0 0 72 72" fill="none" xmlns="http://www.w3.org/2000/svg">
<mask id="mask0_6_478" style="mask-type:alpha" maskUnits="userSpaceOnUse" x="0" y="0" width="72" height="72">
<rect y="0.0200195" width="71.51" height="71.51" fill="#D9D9D9"/>
</mask>
<g mask="url(#mask0_6_478)">
<path d="M17.1326 44.7136H26.0714V40.2443H18.6224V31.3055H26.0714V26.8362H17.1326C16.2884 26.8362 15.5807 27.1217 15.0097 27.6928C14.4386 28.2639 14.153 28.9715 14.153 29.8157V41.7341C14.153 42.5783 14.4386 43.2859 15.0097 43.857C15.5807 44.4281 16.2884 44.7136 17.1326 44.7136ZM28.753 44.7136H37.6917C38.5359 44.7136 39.2436 44.4281 39.8147 43.857C40.3858 43.2859 40.6713 42.5783 40.6713 41.7341V37.2647C40.6713 36.4205 40.3858 35.6383 39.8147 34.9183C39.2436 34.1982 38.5359 33.8382 37.6917 33.8382H33.2224V31.3055H40.6713V26.8362H31.7326C30.8883 26.8362 30.1807 27.1217 29.6096 27.6928C29.0385 28.2639 28.753 28.9715 28.753 29.8157V34.2851C28.753 35.1293 29.0385 35.8866 29.6096 36.557C30.1807 37.2274 30.8883 37.5627 31.7326 37.5627H36.2019V40.2443H28.753V44.7136ZM48.4182 44.7136H52.8876L58.1019 26.8362H53.6325L50.6529 37.1157L47.6733 26.8362H43.204L48.4182 44.7136ZM11.9183 59.6116C10.2796 59.6116 8.87668 59.0281 7.70967 57.8611C6.54267 56.6941 5.95917 55.2912 5.95917 53.6524V17.8974C5.95917 16.2586 6.54267 14.8557 7.70967 13.6887C8.87668 12.5217 10.2796 11.9382 11.9183 11.9382H59.5917C61.2304 11.9382 62.6333 12.5217 63.8003 13.6887C64.9673 14.8557 65.5508 16.2586 65.5508 17.8974V53.6524C65.5508 55.2912 64.9673 56.6941 63.8003 57.8611C62.6333 59.0281 61.2304 59.6116 59.5917 59.6116H11.9183ZM11.9183 53.6524H59.5917V17.8974H11.9183V53.6524Z" fill="white"/>
</g>
</svg>
