<svg width="73" height="72" viewBox="0 0 73 72" fill="none" xmlns="http://www.w3.org/2000/svg">
<mask id="mask0_6_472" style="mask-type:alpha" maskUnits="userSpaceOnUse" x="0" y="0" width="73" height="72">
<rect x="0.51001" y="0.0200195" width="71.51" height="71.51" fill="#D9D9D9"/>
</mask>
<g mask="url(#mask0_6_472)">
<path d="M17.6426 44.7136H26.5813V40.2443H19.1324V31.3055H26.5813V26.8362H17.6426C16.7984 26.8362 16.0907 27.1217 15.5196 27.6928C14.9486 28.2639 14.663 28.9715 14.663 29.8157V41.7341C14.663 42.5783 14.9486 43.2859 15.5196 43.857C16.0907 44.4281 16.7984 44.7136 17.6426 44.7136ZM29.263 44.7136H38.2017C39.0459 44.7136 39.7536 44.4281 40.3247 43.857C40.8958 43.2859 41.1813 42.5783 41.1813 41.7341V37.2647C41.1813 36.4205 40.8958 35.6383 40.3247 34.9183C39.7536 34.1982 39.0459 33.8382 38.2017 33.8382H33.7324V31.3055H41.1813V26.8362H32.2426C31.3983 26.8362 30.6907 27.1217 30.1196 27.6928C29.5485 28.2639 29.263 28.9715 29.263 29.8157V34.2851C29.263 35.1293 29.5485 35.8866 30.1196 36.557C30.6907 37.2274 31.3983 37.5627 32.2426 37.5627H36.7119V40.2443H29.263V44.7136ZM48.9282 44.7136H53.3976L58.6119 26.8362H54.1425L51.1629 37.1157L48.1833 26.8362H43.714L48.9282 44.7136ZM12.4283 59.6116C10.7896 59.6116 9.38667 59.0281 8.21967 57.8611C7.05266 56.6941 6.46916 55.2912 6.46916 53.6524V17.8974C6.46916 16.2586 7.05266 14.8557 8.21967 13.6887C9.38667 12.5217 10.7896 11.9382 12.4283 11.9382H60.1017C61.7404 11.9382 63.1433 12.5217 64.3103 13.6887C65.4773 14.8557 66.0608 16.2586 66.0608 17.8974V53.6524C66.0608 55.2912 65.4773 56.6941 64.3103 57.8611C63.1433 59.0281 61.7404 59.6116 60.1017 59.6116H12.4283Z" fill="white"/>
</g>
</svg>
