<svg width="73" height="72" viewBox="0 0 73 72" fill="none" xmlns="http://www.w3.org/2000/svg">
<mask id="mask0_6_502" style="mask-type:alpha" maskUnits="userSpaceOnUse" x="0" y="0" width="73" height="72">
<rect x="0.51001" y="0.0400391" width="71.51" height="71.51" fill="#D9D9D9"/>
</mask>
<g mask="url(#mask0_6_502)">
<path d="M48.1833 62.6113C46.5446 62.6113 45.1417 62.0278 43.9747 60.8608C42.8077 59.6938 42.2242 58.2909 42.2242 56.6521V44.7338C42.2242 43.095 42.8077 41.6921 43.9747 40.5251C45.1417 39.3581 46.5446 38.7746 48.1833 38.7746H60.1017C61.7404 38.7746 63.1433 39.3581 64.3103 40.5251C65.4773 41.6921 66.0608 43.095 66.0608 44.7338V56.6521C66.0608 58.2909 65.4773 59.6938 64.3103 60.8608C63.1433 62.0278 61.7404 62.6113 60.1017 62.6113H48.1833ZM6.46916 53.6725V47.7133H33.2854V53.6725H6.46916ZM48.1833 32.8154C46.5446 32.8154 45.1417 32.2319 43.9747 31.0649C42.8077 29.8979 42.2242 28.495 42.2242 26.8563V14.9379C42.2242 13.2992 42.8077 11.8963 43.9747 10.7293C45.1417 9.56226 46.5446 8.97876 48.1833 8.97876H60.1017C61.7404 8.97876 63.1433 9.56226 64.3103 10.7293C65.4773 11.8963 66.0608 13.2992 66.0608 14.9379V26.8563C66.0608 28.495 65.4773 29.8979 64.3103 31.0649C63.1433 32.2319 61.7404 32.8154 60.1017 32.8154H48.1833ZM6.46916 23.8767V17.9175H33.2854V23.8767H6.46916Z" fill="white"/>
</g>
</svg>
