<svg width="72" height="72" viewBox="0 0 72 72" fill="none" xmlns="http://www.w3.org/2000/svg">
<mask id="mask0_6_496" style="mask-type:alpha" maskUnits="userSpaceOnUse" x="0" y="0" width="72" height="72">
<rect y="0.0400391" width="71.51" height="71.51" fill="#D9D9D9"/>
</mask>
<g mask="url(#mask0_6_496)">
<path d="M47.6733 62.6113C46.0346 62.6113 44.6317 62.0278 43.4647 60.8608C42.2977 59.6938 41.7142 58.2909 41.7142 56.6521V44.7338C41.7142 43.095 42.2977 41.6921 43.4647 40.5251C44.6317 39.3581 46.0346 38.7746 47.6733 38.7746H59.5917C61.2304 38.7746 62.6333 39.3581 63.8003 40.5251C64.9673 41.6921 65.5508 43.095 65.5508 44.7338V56.6521C65.5508 58.2909 64.9673 59.6938 63.8003 60.8608C62.6333 62.0278 61.2304 62.6113 59.5917 62.6113H47.6733ZM47.6733 56.6521H59.5917V44.7338H47.6733V56.6521ZM5.95917 53.6725V47.7133H32.7754V53.6725H5.95917ZM47.6733 32.8154C46.0346 32.8154 44.6317 32.2319 43.4647 31.0649C42.2977 29.8979 41.7142 28.495 41.7142 26.8563V14.9379C41.7142 13.2992 42.2977 11.8963 43.4647 10.7293C44.6317 9.56226 46.0346 8.97876 47.6733 8.97876H59.5917C61.2304 8.97876 62.6333 9.56226 63.8003 10.7293C64.9673 11.8963 65.5508 13.2992 65.5508 14.9379V26.8563C65.5508 28.495 64.9673 29.8979 63.8003 31.0649C62.6333 32.2319 61.2304 32.8154 59.5917 32.8154H47.6733ZM47.6733 26.8563H59.5917V14.9379H47.6733V26.8563ZM5.95917 23.8767V17.9175H32.7754V23.8767H5.95917Z" fill="white"/>
</g>
</svg>
