<svg width="73" height="73" viewBox="0 0 73 73" fill="none" xmlns="http://www.w3.org/2000/svg">
<mask id="mask0_6_509" style="mask-type:alpha" maskUnits="userSpaceOnUse" x="0" y="0" width="73" height="73">
<rect x="0.51001" y="0.51001" width="71.51" height="71.51" fill="#D9D9D9"/>
</mask>
<g mask="url(#mask0_6_509)">
<path d="M18.3875 69.0403C16.7487 69.0403 15.3459 68.4568 14.1789 67.2898C13.0118 66.1228 12.4283 64.7199 12.4283 63.0812V30.3058C12.4283 28.667 13.0118 27.2641 14.1789 26.0971C15.3459 24.9301 16.7487 24.3466 18.3875 24.3466H27.3263V30.3058H18.3875V63.0812H54.1425V30.3058H45.2038V24.3466H54.1425C55.7813 24.3466 57.1842 24.9301 58.3512 26.0971C59.5182 27.2641 60.1017 28.667 60.1017 30.3058V63.0812C60.1017 64.7199 59.5182 66.1228 58.3512 67.2898C57.1842 68.4568 55.7813 69.0403 54.1425 69.0403H18.3875ZM33.2854 48.1833V14.8864L28.5181 19.6537L24.3467 15.4078L36.265 3.4895L48.1833 15.4078L44.0119 19.6537L39.2446 14.8864V48.1833H33.2854Z" fill="white"/>
</g>
</svg>
