<svg width="72" height="73" viewBox="0 0 72 73" fill="none" xmlns="http://www.w3.org/2000/svg">
<mask id="mask0_6_508" style="mask-type:alpha" maskUnits="userSpaceOnUse" x="0" y="0" width="72" height="73">
<rect y="0.51001" width="71.51" height="71.51" fill="#D9D9D9"/>
</mask>
<g mask="url(#mask0_6_508)">
<path d="M17.8775 69.0403C16.2387 69.0403 14.8358 68.4568 13.6688 67.2898C12.5018 66.1228 11.9183 64.7199 11.9183 63.0812V30.3058C11.9183 28.667 12.5018 27.2641 13.6688 26.0971C14.8358 24.9301 16.2387 24.3466 17.8775 24.3466H26.8163V30.3058H17.8775V63.0812H53.6325V30.3058H44.6938V24.3466H53.6325C55.2713 24.3466 56.6742 24.9301 57.8412 26.0971C59.0082 27.2641 59.5917 28.667 59.5917 30.3058V63.0812C59.5917 64.7199 59.0082 66.1228 57.8412 67.2898C56.6742 68.4568 55.2713 69.0403 53.6325 69.0403H17.8775ZM32.7754 48.1833V14.8864L28.0081 19.6537L23.8367 15.4078L35.755 3.4895L47.6733 15.4078L43.5019 19.6537L38.7346 14.8864V48.1833H32.7754Z" fill="white"/>
</g>
</svg>
