<svg width="72" height="72" viewBox="0 0 72 72" fill="none" xmlns="http://www.w3.org/2000/svg">
<mask id="mask0_360_1052" style="mask-type:alpha" maskUnits="userSpaceOnUse" x="0" y="0" width="72" height="72">
<rect width="71.51" height="71.51" fill="#D9D9D9"/>
</mask>
<g mask="url(#mask0_360_1052)">
<path d="M36.3509 41.7142L31.5091 46.556L35.6805 50.7274L47.6733 38.7346L35.6805 26.7418L31.5091 30.9132L36.3509 35.755H23.8367V41.7142H36.3509ZM11.9183 59.5917C10.2796 59.5917 8.87668 59.0082 7.70967 57.8412C6.54267 56.6742 5.95917 55.2713 5.95917 53.6325V17.8775C5.95917 16.2387 6.54267 14.8358 7.70967 13.6688C8.87668 12.5018 10.2796 11.9183 11.9183 11.9183H29.7958L35.755 17.8775H59.5917C61.2304 17.8775 62.6333 18.461 63.8003 19.628C64.9673 20.795 65.5508 22.1979 65.5508 23.8367V53.6325C65.5508 55.2713 64.9673 56.6742 63.8003 57.8412C62.6333 59.0082 61.2304 59.5917 59.5917 59.5917H11.9183ZM11.9183 53.6325H59.5917V23.8367H33.2968L27.3377 17.8775H11.9183V53.6325Z" fill="#F4F4F4"/>
</g>
</svg>
