<svg width="72" height="72" viewBox="0 0 72 72" fill="none" xmlns="http://www.w3.org/2000/svg">
<mask id="mask0_104_5689" style="mask-type:alpha" maskUnits="userSpaceOnUse" x="0" y="0" width="72" height="72">
<rect y="0.0800781" width="71.51" height="71.51" fill="#D9D9D9"/>
</mask>
<g mask="url(#mask0_104_5689)">
<path d="M20.8571 50.733H26.8162V35.835H20.8571V50.733ZM44.6937 50.733H50.6529V20.9371H44.6937V50.733ZM32.7754 50.733H38.7346V41.7942H32.7754V50.733ZM32.7754 35.835H38.7346V29.8759H32.7754V35.835ZM14.8979 62.6513C13.2591 62.6513 11.8563 62.0678 10.6893 60.9008C9.52225 59.7338 8.93875 58.3309 8.93875 56.6921V14.978C8.93875 13.3392 9.52225 11.9363 10.6893 10.7693C11.8563 9.6023 13.2591 9.0188 14.8979 9.0188H56.6121C58.2509 9.0188 59.6537 9.6023 60.8207 10.7693C61.9878 11.9363 62.5712 13.3392 62.5712 14.978V56.6921C62.5712 58.3309 61.9878 59.7338 60.8207 60.9008C59.6537 62.0678 58.2509 62.6513 56.6121 62.6513H14.8979ZM14.8979 56.6921H56.6121V14.978H14.8979V56.6921Z" fill="#F4F4F4"/>
</g>
</svg>
