<svg width="73" height="72" viewBox="0 0 73 72" fill="none" xmlns="http://www.w3.org/2000/svg">
<mask id="mask0_104_5683" style="mask-type:alpha" maskUnits="userSpaceOnUse" x="0" y="0" width="73" height="72">
<rect x="0.51001" y="0.0800781" width="71.51" height="71.51" fill="#D9D9D9"/>
</mask>
<g mask="url(#mask0_104_5683)">
<path d="M21.3671 50.733H27.3263V35.835H21.3671V50.733ZM45.2038 50.733H51.1629V20.9371H45.2038V50.733ZM33.2854 50.733H39.2446V41.7942H33.2854V50.733ZM33.2854 35.835H39.2446V29.8759H33.2854V35.835ZM15.4079 62.6513C13.7692 62.6513 12.3663 62.0678 11.1993 60.9008C10.0323 59.7338 9.44876 58.3309 9.44876 56.6921V14.978C9.44876 13.3392 10.0323 11.9363 11.1993 10.7693C12.3663 9.6023 13.7692 9.0188 15.4079 9.0188H57.1221C58.7609 9.0188 60.1638 9.6023 61.3308 10.7693C62.4978 11.9363 63.0813 13.3392 63.0813 14.978V56.6921C63.0813 58.3309 62.4978 59.7338 61.3308 60.9008C60.1638 62.0678 58.7609 62.6513 57.1221 62.6513H15.4079Z" fill="#F4F4F4"/>
</g>
</svg>
