<svg width="73" height="72" viewBox="0 0 73 72" fill="none" xmlns="http://www.w3.org/2000/svg">
<mask id="mask0_6_528" style="mask-type:alpha" maskUnits="userSpaceOnUse" x="0" y="0" width="73" height="72">
<rect x="0.51001" width="71.51" height="71.51" fill="#D9D9D9"/>
</mask>
<g mask="url(#mask0_6_528)">
<path d="M13.4488 32.7754C11.2396 32.7754 9.44876 30.9845 9.44876 28.7754V12.9387C9.44876 10.7296 11.2396 8.93872 13.4488 8.93872H29.2854C31.4946 8.93872 33.2854 10.7296 33.2854 12.9387V28.7754C33.2854 30.9845 31.4946 32.7754 29.2854 32.7754H13.4488ZM13.4488 62.5712C11.2396 62.5712 9.44876 60.7804 9.44876 58.5712V42.7346C9.44876 40.5254 11.2396 38.7346 13.4488 38.7346H29.2854C31.4946 38.7346 33.2854 40.5254 33.2854 42.7346V58.5712C33.2854 60.7804 31.4946 62.5712 29.2854 62.5712H13.4488ZM43.2446 32.7754C41.0355 32.7754 39.2446 30.9845 39.2446 28.7754V12.9387C39.2446 10.7296 41.0355 8.93872 43.2446 8.93872H59.0813C61.2904 8.93872 63.0813 10.7296 63.0813 12.9387V28.7754C63.0813 30.9845 61.2904 32.7754 59.0813 32.7754H43.2446ZM43.2446 62.5712C41.0355 62.5712 39.2446 60.7804 39.2446 58.5712V42.7346C39.2446 40.5254 41.0355 38.7346 43.2446 38.7346H59.0813C61.2904 38.7346 63.0813 40.5254 63.0813 42.7346V58.5712C63.0813 60.7804 61.2904 62.5712 59.0813 62.5712H43.2446Z" fill="white"/>
</g>
</svg>
