<svg width="72" height="72" viewBox="0 0 72 72" fill="none" xmlns="http://www.w3.org/2000/svg">
<mask id="mask0_6_518" style="mask-type:alpha" maskUnits="userSpaceOnUse" x="0" y="0" width="72" height="72">
<rect width="71.51" height="71.51" fill="#D9D9D9"/>
</mask>
<g mask="url(#mask0_6_518)">
<path d="M13 32.8367C10.7909 32.8367 9 31.0458 9 28.8367V13C9 10.7909 10.7909 9 13 9H28.8367C31.0458 9 32.8367 10.7909 32.8367 13V28.8367C32.8367 31.0458 31.0458 32.8367 28.8367 32.8367H13ZM13 62.6325C10.7909 62.6325 9 60.8416 9 58.6325V42.7958C9 40.5867 10.7909 38.7958 13 38.7958H28.8367C31.0458 38.7958 32.8367 40.5867 32.8367 42.7958V58.6325C32.8367 60.8416 31.0458 62.6325 28.8367 62.6325H13ZM42.7958 32.8367C40.5867 32.8367 38.7958 31.0458 38.7958 28.8367V13C38.7958 10.7909 40.5867 9 42.7958 9H58.6325C60.8416 9 62.6325 10.7909 62.6325 13V28.8367C62.6325 31.0458 60.8416 32.8367 58.6325 32.8367H42.7958ZM42.7958 62.6325C40.5867 62.6325 38.7958 60.8416 38.7958 58.6325V42.7958C38.7958 40.5867 40.5867 38.7958 42.7958 38.7958H58.6325C60.8416 38.7958 62.6325 40.5867 62.6325 42.7958V58.6325C62.6325 60.8416 60.8416 62.6325 58.6325 62.6325H42.7958ZM14.9592 22.8775C14.9592 25.0866 16.75 26.8775 18.9592 26.8775H22.8775C25.0866 26.8775 26.8775 25.0866 26.8775 22.8775V18.9592C26.8775 16.75 25.0866 14.9592 22.8775 14.9592H18.9592C16.75 14.9592 14.9592 16.75 14.9592 18.9592V22.8775ZM44.755 22.8775C44.755 25.0866 46.5459 26.8775 48.755 26.8775H52.6733C54.8825 26.8775 56.6733 25.0866 56.6733 22.8775V18.9592C56.6733 16.75 54.8825 14.9592 52.6733 14.9592H48.755C46.5459 14.9592 44.755 16.75 44.755 18.9592V22.8775ZM44.755 52.6733C44.755 54.8825 46.5459 56.6733 48.755 56.6733H52.6733C54.8825 56.6733 56.6733 54.8825 56.6733 52.6733V48.755C56.6733 46.5459 54.8825 44.755 52.6733 44.755H48.755C46.5459 44.755 44.755 46.5459 44.755 48.755V52.6733ZM14.9592 52.6733C14.9592 54.8825 16.75 56.6733 18.9592 56.6733H22.8775C25.0866 56.6733 26.8775 54.8825 26.8775 52.6733V48.755C26.8775 46.5459 25.0866 44.755 22.8775 44.755H18.9592C16.75 44.755 14.9592 46.5459 14.9592 48.755V52.6733Z" fill="white"/>
</g>
</svg>
