<svg width="72" height="73" viewBox="0 0 72 73" fill="none" xmlns="http://www.w3.org/2000/svg">
<mask id="mask0_6_484" style="mask-type:alpha" maskUnits="userSpaceOnUse" x="0" y="0" width="72" height="73">
<rect y="0.530029" width="71.51" height="71.51" fill="#D9D9D9"/>
</mask>
<g mask="url(#mask0_6_484)">
<path d="M14.153 45.2237H19.3673C20.2115 45.2237 20.9192 44.9381 21.4902 44.367C22.0613 43.7959 22.3469 43.0883 22.3469 42.2441V27.3462H17.8775V41.4992H14.8979V37.7747H11.1734V42.2441C11.1734 43.0883 11.459 43.7959 12.0301 44.367C12.6012 44.9381 13.3088 45.2237 14.153 45.2237ZM27.3377 45.2237H31.8071C32.6513 45.2237 33.3589 44.9381 33.93 44.367C34.5011 43.7959 34.7866 43.0883 34.7866 42.2441V37.7747C34.7866 36.9305 34.5011 36.2228 33.93 35.6517C33.3589 35.0807 32.6513 34.7951 31.8071 34.7951H28.0826V31.0706H31.0622V32.5604H34.7866V30.3257C34.7866 29.4815 34.5011 28.7739 33.93 28.2028C33.3589 27.6317 32.6513 27.3462 31.8071 27.3462H27.3377C26.4935 27.3462 25.7858 27.6317 25.2147 28.2028C24.6436 28.7739 24.3581 29.4815 24.3581 30.3257V34.7951C24.3581 35.6393 24.6436 36.347 25.2147 36.9181C25.7858 37.4892 26.4935 37.7747 27.3377 37.7747H31.0622V41.4992H28.0826V40.0094H24.3581V42.2441C24.3581 43.0883 24.6436 43.7959 25.2147 44.367C25.7858 44.9381 26.4935 45.2237 27.3377 45.2237ZM40.4478 40.7543V31.8155H43.4274V40.7543H40.4478ZM39.703 45.2237H44.1723C45.0165 45.2237 45.7242 44.9381 46.2953 44.367C46.8664 43.7959 47.1519 43.0883 47.1519 42.2441V30.3257C47.1519 29.4815 46.8664 28.7739 46.2953 28.2028C45.7242 27.6317 45.0165 27.3462 44.1723 27.3462H39.703C38.8587 27.3462 38.1511 27.6317 37.58 28.2028C37.0089 28.7739 36.7234 29.4815 36.7234 30.3257V42.2441C36.7234 43.0883 37.0089 43.7959 37.58 44.367C38.1511 44.9381 38.8587 45.2237 39.703 45.2237ZM49.1631 45.2237H52.8876V37.4023L55.8672 45.2237H59.5917V27.3462H55.8672V35.1676L52.8876 27.3462H49.1631V45.2237ZM8.93875 60.1216C7.29998 60.1216 5.89709 59.5381 4.73009 58.3711C3.56309 57.2041 2.97958 55.8012 2.97958 54.1624V18.4074C2.97958 16.7686 3.56309 15.3658 4.73009 14.1987C5.89709 13.0317 7.29998 12.4482 8.93875 12.4482H62.5713C64.21 12.4482 65.6129 13.0317 66.7799 14.1987C67.9469 15.3658 68.5304 16.7686 68.5304 18.4074V54.1624C68.5304 55.8012 67.9469 57.2041 66.7799 58.3711C65.6129 59.5381 64.21 60.1216 62.5713 60.1216H8.93875ZM8.93875 54.1624H62.5713V18.4074H8.93875V54.1624Z" fill="white"/>
</g>
</svg>
