<svg width="73" height="73" viewBox="0 0 73 73" fill="none" xmlns="http://www.w3.org/2000/svg">
<mask id="mask0_6_490" style="mask-type:alpha" maskUnits="userSpaceOnUse" x="0" y="0" width="73" height="73">
<rect x="0.51001" y="0.530029" width="71.51" height="71.51" fill="#D9D9D9"/>
</mask>
<g mask="url(#mask0_6_490)">
<path d="M14.663 45.2237H19.8773C20.7215 45.2237 21.4292 44.9381 22.0003 44.367C22.5714 43.7959 22.8569 43.0883 22.8569 42.2441V27.3462H18.3875V41.4992H15.4079V37.7747H11.6835V42.2441C11.6835 43.0883 11.969 43.7959 12.5401 44.367C13.1112 44.9381 13.8188 45.2237 14.663 45.2237ZM27.8477 45.2237H32.3171C33.1613 45.2237 33.8689 44.9381 34.44 44.367C35.0111 43.7959 35.2967 43.0883 35.2967 42.2441V37.7747C35.2967 36.9305 35.0111 36.2228 34.44 35.6517C33.8689 35.0807 33.1613 34.7951 32.3171 34.7951H28.5926V31.0706H31.5722V32.5604H35.2967V30.3257C35.2967 29.4815 35.0111 28.7739 34.44 28.2028C33.8689 27.6317 33.1613 27.3462 32.3171 27.3462H27.8477C27.0035 27.3462 26.2958 27.6317 25.7248 28.2028C25.1537 28.7739 24.8681 29.4815 24.8681 30.3257V34.7951C24.8681 35.6393 25.1537 36.347 25.7248 36.9181C26.2958 37.4892 27.0035 37.7747 27.8477 37.7747H31.5722V41.4992H28.5926V40.0094H24.8681V42.2441C24.8681 43.0883 25.1537 43.7959 25.7248 44.367C26.2958 44.9381 27.0035 45.2237 27.8477 45.2237ZM40.9579 40.7543V31.8155H43.9375V40.7543H40.9579ZM40.213 45.2237H44.6824C45.5266 45.2237 46.2342 44.9381 46.8053 44.367C47.3764 43.7959 47.6619 43.0883 47.6619 42.2441V30.3257C47.6619 29.4815 47.3764 28.7739 46.8053 28.2028C46.2342 27.6317 45.5266 27.3462 44.6824 27.3462H40.213C39.3688 27.3462 38.6611 27.6317 38.09 28.2028C37.5189 28.7739 37.2334 29.4815 37.2334 30.3257V42.2441C37.2334 43.0883 37.5189 43.7959 38.09 44.367C38.6611 44.9381 39.3688 45.2237 40.213 45.2237ZM49.6732 45.2237H53.3976V37.4023L56.3772 45.2237H60.1017V27.3462H56.3772V35.1676L53.3976 27.3462H49.6732V45.2237ZM9.44878 60.1216C7.81 60.1216 6.40712 59.5381 5.24011 58.3711C4.07311 57.2041 3.48961 55.8012 3.48961 54.1624V18.4074C3.48961 16.7686 4.07311 15.3658 5.24011 14.1987C6.40712 13.0317 7.81 12.4482 9.44878 12.4482H63.0813C64.7201 12.4482 66.1229 13.0317 67.2899 14.1987C68.4569 15.3658 69.0404 16.7686 69.0404 18.4074V54.1624C69.0404 55.8012 68.4569 57.2041 67.2899 58.3711C66.1229 59.5381 64.7201 60.1216 63.0813 60.1216H9.44878Z" fill="white"/>
</g>
</svg>
