<svg width="73" height="73" viewBox="0 0 73 73" fill="none" xmlns="http://www.w3.org/2000/svg">
<mask id="mask0_9_1447" style="mask-type:alpha" maskUnits="userSpaceOnUse" x="0" y="0" width="73" height="73">
<rect x="0.51001" y="0.550049" width="71.51" height="71.51" fill="#D9D9D9"/>
</mask>
<g mask="url(#mask0_9_1447)">
<path d="M18.3875 42.2642C16.7487 42.2642 15.3459 41.6807 14.1789 40.5137C13.0118 39.3467 12.4283 37.9438 12.4283 36.305C12.4283 34.6662 13.0118 33.2633 14.1789 32.0963C15.3459 30.9293 16.7487 30.3458 18.3875 30.3458C20.0263 30.3458 21.4292 30.9293 22.5962 32.0963C23.7632 33.2633 24.3467 34.6662 24.3467 36.305C24.3467 37.9438 23.7632 39.3467 22.5962 40.5137C21.4292 41.6807 20.0263 42.2642 18.3875 42.2642ZM36.265 42.2642C34.6262 42.2642 33.2234 41.6807 32.0564 40.5137C30.8893 39.3467 30.3058 37.9438 30.3058 36.305C30.3058 34.6662 30.8893 33.2633 32.0564 32.0963C33.2234 30.9293 34.6262 30.3458 36.265 30.3458C37.9038 30.3458 39.3067 30.9293 40.4737 32.0963C41.6407 33.2633 42.2242 34.6662 42.2242 36.305C42.2242 37.9438 41.6407 39.3467 40.4737 40.5137C39.3067 41.6807 37.9038 42.2642 36.265 42.2642ZM54.1425 42.2642C52.5037 42.2642 51.1009 41.6807 49.9339 40.5137C48.7668 39.3467 48.1833 37.9438 48.1833 36.305C48.1833 34.6662 48.7668 33.2633 49.9339 32.0963C51.1009 30.9293 52.5037 30.3458 54.1425 30.3458C55.7813 30.3458 57.1842 30.9293 58.3512 32.0963C59.5182 33.2633 60.1017 34.6662 60.1017 36.305C60.1017 37.9438 59.5182 39.3467 58.3512 40.5137C57.1842 41.6807 55.7813 42.2642 54.1425 42.2642Z" fill="white"/>
</g>
</svg>
