<svg width="72" height="73" viewBox="0 0 72 73" fill="none" xmlns="http://www.w3.org/2000/svg">
<mask id="mask0_9_1446" style="mask-type:alpha" maskUnits="userSpaceOnUse" x="0" y="0" width="72" height="73">
<rect y="0.550049" width="71.51" height="71.51" fill="#D9D9D9"/>
</mask>
<g mask="url(#mask0_9_1446)">
<path d="M17.8775 42.2642C16.2387 42.2642 14.8358 41.6807 13.6688 40.5137C12.5018 39.3467 11.9183 37.9438 11.9183 36.305C11.9183 34.6662 12.5018 33.2633 13.6688 32.0963C14.8358 30.9293 16.2387 30.3458 17.8775 30.3458C19.5163 30.3458 20.9192 30.9293 22.0862 32.0963C23.2532 33.2633 23.8367 34.6662 23.8367 36.305C23.8367 37.9438 23.2532 39.3467 22.0862 40.5137C20.9192 41.6807 19.5163 42.2642 17.8775 42.2642ZM35.755 42.2642C34.1162 42.2642 32.7133 41.6807 31.5463 40.5137C30.3793 39.3467 29.7958 37.9438 29.7958 36.305C29.7958 34.6662 30.3793 33.2633 31.5463 32.0963C32.7133 30.9293 34.1162 30.3458 35.755 30.3458C37.3938 30.3458 38.7967 30.9293 39.9637 32.0963C41.1307 33.2633 41.7142 34.6662 41.7142 36.305C41.7142 37.9438 41.1307 39.3467 39.9637 40.5137C38.7967 41.6807 37.3938 42.2642 35.755 42.2642ZM53.6325 42.2642C51.9937 42.2642 50.5908 41.6807 49.4238 40.5137C48.2568 39.3467 47.6733 37.9438 47.6733 36.305C47.6733 34.6662 48.2568 33.2633 49.4238 32.0963C50.5908 30.9293 51.9937 30.3458 53.6325 30.3458C55.2713 30.3458 56.6742 30.9293 57.8412 32.0963C59.0082 33.2633 59.5917 34.6662 59.5917 36.305C59.5917 37.9438 59.0082 39.3467 57.8412 40.5137C56.6742 41.6807 55.2713 42.2642 53.6325 42.2642Z" fill="white"/>
</g>
</svg>
