<svg width="72" height="72" viewBox="0 0 72 72" fill="none" xmlns="http://www.w3.org/2000/svg">
<mask id="mask0_9_1761" style="mask-type:alpha" maskUnits="userSpaceOnUse" x="0" y="0" width="72" height="72">
<rect y="0.0600586" width="71.51" height="71.51" fill="#D9D9D9"/>
</mask>
<g mask="url(#mask0_9_1761)">
<path d="M14.8979 62.6313C14.0537 62.6313 13.3461 62.3457 12.775 61.7747C12.2039 61.2036 11.9183 60.4959 11.9183 59.6517V56.6721H8.93875V44.7538C8.93875 43.9096 9.22429 43.2019 9.79538 42.6308C10.3665 42.0597 11.0741 41.7742 11.9183 41.7742H14.8979V20.9171C14.8979 17.6396 16.0649 14.8338 18.3989 12.4998C20.7329 10.1658 23.5387 8.99878 26.8163 8.99878C30.0938 8.99878 32.8996 10.1658 35.2336 12.4998C37.5676 14.8338 38.7346 17.6396 38.7346 20.9171V50.7129C38.7346 52.3517 39.3181 53.7546 40.4851 54.9216C41.6521 56.0886 43.055 56.6721 44.6938 56.6721C46.3325 56.6721 47.7354 56.0886 48.9024 54.9216C50.0694 53.7546 50.6529 52.3517 50.6529 50.7129V29.8559H47.6733C46.8291 29.8559 46.1215 29.5703 45.5504 28.9992C44.9793 28.4281 44.6938 27.7205 44.6938 26.8763V14.9579H47.6733V11.9784C47.6733 11.1341 47.9589 10.4265 48.53 9.85541C49.1011 9.28432 49.8087 8.99878 50.6529 8.99878H56.6121C57.4563 8.99878 58.164 9.28432 58.735 9.85541C59.3061 10.4265 59.5917 11.1341 59.5917 11.9784V14.9579H62.5713V26.8763C62.5713 27.7205 62.2857 28.4281 61.7146 28.9992C61.1435 29.5703 60.4359 29.8559 59.5917 29.8559H56.6121V50.7129C56.6121 53.9905 55.4451 56.7963 53.1111 59.1303C50.7771 61.4643 47.9713 62.6313 44.6938 62.6313C41.4162 62.6313 38.6104 61.4643 36.2764 59.1303C33.9424 56.7963 32.7754 53.9905 32.7754 50.7129V20.9171C32.7754 19.2783 32.1919 17.8755 31.0249 16.7085C29.8579 15.5414 28.455 14.9579 26.8163 14.9579C25.1775 14.9579 23.7746 15.5414 22.6076 16.7085C21.4406 17.8755 20.8571 19.2783 20.8571 20.9171V41.7742H23.8367C24.6809 41.7742 25.3885 42.0597 25.9596 42.6308C26.5307 43.2019 26.8163 43.9096 26.8163 44.7538V56.6721H23.8367V59.6517C23.8367 60.4959 23.5511 61.2036 22.98 61.7747C22.409 62.3457 21.7013 62.6313 20.8571 62.6313H14.8979Z" fill="white"/>
</g>
</svg>
