<svg width="73" height="72" viewBox="0 0 73 72" fill="none" xmlns="http://www.w3.org/2000/svg">
<mask id="mask0_9_1762" style="mask-type:alpha" maskUnits="userSpaceOnUse" x="0" y="0" width="73" height="72">
<rect x="0.51001" y="0.0600586" width="71.51" height="71.51" fill="#D9D9D9"/>
</mask>
<g mask="url(#mask0_9_1762)">
<path d="M15.4079 62.6313C14.5637 62.6313 13.8561 62.3457 13.285 61.7747C12.7139 61.2036 12.4283 60.4959 12.4283 59.6517V56.6721H9.44876V44.7538C9.44876 43.9096 9.7343 43.2019 10.3054 42.6308C10.8765 42.0597 11.5841 41.7742 12.4283 41.7742H15.4079V20.9171C15.4079 17.6396 16.5749 14.8338 18.9089 12.4998C21.2429 10.1658 24.0487 8.99878 27.3263 8.99878C30.6038 8.99878 33.4096 10.1658 35.7436 12.4998C38.0776 14.8338 39.2446 17.6396 39.2446 20.9171V50.7129C39.2446 52.3517 39.8281 53.7546 40.9951 54.9216C42.1621 56.0886 43.565 56.6721 45.2038 56.6721C46.8425 56.6721 48.2454 56.0886 49.4124 54.9216C50.5794 53.7546 51.1629 52.3517 51.1629 50.7129V29.8559H48.1833C47.3391 29.8559 46.6315 29.5703 46.0604 28.9992C45.4893 28.4281 45.2038 27.7205 45.2038 26.8763V14.9579H48.1833V11.9784C48.1833 11.1341 48.4689 10.4265 49.04 9.85541C49.6111 9.28432 50.3187 8.99878 51.1629 8.99878H57.1221C57.9663 8.99878 58.674 9.28432 59.245 9.85541C59.8161 10.4265 60.1017 11.1341 60.1017 11.9784V14.9579H63.0813V26.8763C63.0813 27.7205 62.7957 28.4281 62.2246 28.9992C61.6535 29.5703 60.9459 29.8559 60.1017 29.8559H57.1221V50.7129C57.1221 53.9905 55.9551 56.7963 53.6211 59.1303C51.2871 61.4643 48.4813 62.6313 45.2038 62.6313C41.9262 62.6313 39.1204 61.4643 36.7864 59.1303C34.4524 56.7963 33.2854 53.9905 33.2854 50.7129V20.9171C33.2854 19.2783 32.7019 17.8755 31.5349 16.7085C30.3679 15.5414 28.965 14.9579 27.3263 14.9579C25.6875 14.9579 24.2846 15.5414 23.1176 16.7085C21.9506 17.8755 21.3671 19.2783 21.3671 20.9171V41.7742H24.3467C25.1909 41.7742 25.8985 42.0597 26.4696 42.6308C27.0407 43.2019 27.3263 43.9096 27.3263 44.7538V56.6721H24.3467V59.6517C24.3467 60.4959 24.0611 61.2036 23.49 61.7747C22.919 62.3457 22.2113 62.6313 21.3671 62.6313H15.4079Z" fill="white"/>
</g>
</svg>
