<svg width="73" height="72" viewBox="0 0 73 72" fill="none" xmlns="http://www.w3.org/2000/svg">
<mask id="mask0_86_2504" style="mask-type:alpha" maskUnits="userSpaceOnUse" x="0" y="0" width="73" height="72">
<rect x="0.861877" width="71.51" height="71.51" fill="#D9D9D9"/>
</mask>
<g mask="url(#mask0_86_2504)">
<path d="M33.6373 53.6324C31.9917 53.6324 30.6577 52.2984 30.6577 50.6529C30.6577 49.0073 31.9917 47.6733 33.6373 47.6733H39.5964C41.242 47.6733 42.576 49.0073 42.576 50.6529C42.576 52.2984 41.242 53.6324 39.5964 53.6324H33.6373ZM21.7189 38.7345C20.0734 38.7345 18.7393 37.4005 18.7393 35.7549C18.7393 34.1094 20.0734 32.7754 21.7189 32.7754H51.5148C53.1603 32.7754 54.4943 34.1094 54.4943 35.7549C54.4943 37.4005 53.1603 38.7345 51.5148 38.7345H21.7189ZM12.7802 23.8366C11.1346 23.8366 9.8006 22.5026 9.8006 20.857C9.8006 19.2114 11.1346 17.8774 12.7802 17.8774H60.4535C62.0991 17.8774 63.4331 19.2114 63.4331 20.857C63.4331 22.5026 62.0991 23.8366 60.4535 23.8366H12.7802Z" fill="white"/>
</g>
</svg>
