<svg width="72" height="72" viewBox="0 0 72 72" fill="none" xmlns="http://www.w3.org/2000/svg">
<mask id="mask0_67_193" style="mask-type:alpha" maskUnits="userSpaceOnUse" x="0" y="0" width="72" height="72">
<rect width="71.51" height="71.51" fill="#D9D9D9"/>
</mask>
<g mask="url(#mask0_67_193)">
<path d="M31.0924 65.5509C29.0751 65.5509 27.3735 64.0487 27.1233 62.047L26.6218 58.0354C26.4664 56.7922 25.6146 55.7738 24.5444 55.1224C23.476 54.472 22.1639 54.301 21.0108 54.7855L17.2509 56.3653C15.3948 57.1452 13.2484 56.4241 12.2397 54.6818L7.58132 46.6355C6.56981 44.8884 7.01877 42.6613 8.62819 41.4425L12.6782 38.3755C13.1747 37.9996 13.4082 37.3835 13.4082 36.7607V34.7495C13.4082 34.1266 13.1747 33.5106 12.6782 33.1346L8.62819 30.0676C7.01877 28.8488 6.56982 26.6218 7.58132 24.8746L12.2397 16.8284C13.2484 15.0861 15.3948 14.3649 17.2509 15.1448L20.9819 16.7125C22.153 17.2045 23.4845 17.0278 24.5817 16.3878C25.6501 15.7645 26.4641 14.7364 26.6175 13.5091L27.1233 9.46309C27.3735 7.46138 29.0751 5.95923 31.0924 5.95923H40.4178C42.4351 5.95923 44.1367 7.46138 44.387 9.46309L44.8884 13.4747C45.0438 14.7179 45.8956 15.7364 46.9658 16.3878C48.0342 17.0381 49.3463 17.2091 50.4994 16.7246L54.2594 15.1448C56.1154 14.3649 58.2618 15.0861 59.2705 16.8284L63.9289 24.8746C64.9404 26.6218 64.4915 28.8488 62.882 30.0676L58.8321 33.1346C58.3355 33.5106 58.102 34.1266 58.102 34.7495V36.7607C58.102 37.3754 58.276 38.0109 58.7661 38.382L62.8076 41.4425C64.417 42.6613 64.8659 44.8884 63.8544 46.6355L59.2014 54.6725C58.1904 56.4188 56.0371 57.1386 54.1791 56.3513L50.5259 54.8034C49.3569 54.308 48.0253 54.4826 46.9286 55.1224C45.8601 55.7456 45.0461 56.7737 44.8927 58.001L44.387 62.047C44.1367 64.0487 42.4351 65.5509 40.4178 65.5509H31.0924ZM35.9041 46.1836C38.7844 46.1836 41.2425 45.1656 43.2786 43.1295C45.3146 41.0935 46.3326 38.6353 46.3326 35.7551C46.3326 32.8748 45.3146 30.4166 43.2786 28.3806C41.2425 26.3445 38.7844 25.3265 35.9041 25.3265C32.9742 25.3265 30.5036 26.3445 28.4924 28.3806C26.4812 30.4166 25.4756 32.8748 25.4756 35.7551C25.4756 38.6353 26.4812 41.0935 28.4924 43.1295C30.5036 45.1656 32.9742 46.1836 35.9041 46.1836Z" fill="white"/>
</g>
</svg>
