<svg width="72" height="72" viewBox="0 0 72 72" fill="none" xmlns="http://www.w3.org/2000/svg">
<mask id="mask0_67_187" style="mask-type:alpha" maskUnits="userSpaceOnUse" x="0" y="0" width="72" height="72">
<rect width="71.51" height="71.51" fill="#D9D9D9"/>
</mask>
<g mask="url(#mask0_67_187)">
<path d="M31.0924 65.5509C29.0751 65.5509 27.3735 64.0487 27.1233 62.047L26.6218 58.0354C26.4664 56.7922 25.6146 55.7738 24.5444 55.1224C23.476 54.472 22.1639 54.301 21.0108 54.7855L17.2509 56.3653C15.3948 57.1452 13.2484 56.4241 12.2397 54.6818L7.58132 46.6355C6.56981 44.8884 7.01877 42.6613 8.62819 41.4425L12.6782 38.3755C13.1747 37.9996 13.4082 37.3835 13.4082 36.7607V34.7495C13.4082 34.1266 13.1747 33.5106 12.6782 33.1346L8.62819 30.0676C7.01877 28.8488 6.56982 26.6218 7.58132 24.8746L12.2397 16.8284C13.2484 15.0861 15.3948 14.3649 17.2509 15.1448L20.9819 16.7125C22.153 17.2045 23.4845 17.0278 24.5817 16.3878C25.6501 15.7645 26.4641 14.7364 26.6175 13.5091L27.1233 9.46309C27.3735 7.46138 29.0751 5.95923 31.0924 5.95923H40.4178C42.4351 5.95923 44.1367 7.46137 44.387 9.46309L44.8884 13.4747C45.0438 14.7179 45.8956 15.7364 46.9658 16.3878C48.0342 17.0381 49.3463 17.2091 50.4994 16.7246L54.2594 15.1448C56.1154 14.3649 58.2619 15.0861 59.2705 16.8284L63.9289 24.8746C64.9404 26.6218 64.4915 28.8488 62.882 30.0676L58.8321 33.1346C58.3355 33.5106 58.102 34.1266 58.102 34.7495V36.7607C58.102 37.3754 58.276 38.0109 58.7661 38.382L62.8076 41.4425C64.417 42.6613 64.8659 44.8884 63.8544 46.6355L59.2014 54.6725C58.1904 56.4188 56.0371 57.1386 54.1791 56.3513L50.5259 54.8034C49.3569 54.308 48.0253 54.4826 46.9286 55.1224C45.8601 55.7456 45.0461 56.7737 44.8927 58.001L44.387 62.047C44.1367 64.0487 42.4351 65.5509 40.4178 65.5509H31.0924ZM32.4157 56.6576C32.6211 58.3328 34.0438 59.5917 35.7316 59.5917C37.4076 59.5917 38.8242 58.3499 39.0437 56.6884L39.3498 54.3709C39.5633 52.7543 40.7575 51.4723 42.2535 50.8233C42.8512 50.5641 43.4287 50.2714 43.9862 49.9453C44.536 49.6237 45.0664 49.274 45.5772 48.896C46.8777 47.9338 48.5735 47.5556 50.0681 48.1745L52.2782 49.0898C53.8194 49.7281 55.5949 49.1225 56.4248 47.6754C57.2557 46.2266 56.8799 44.386 55.5475 43.3789L53.2776 41.6633C52.2034 40.8514 51.8215 39.437 51.9939 38.1015C52.0932 37.3318 52.1428 36.5496 52.1428 35.7551C52.1428 34.9605 52.0932 34.1784 51.9939 33.4086C51.8215 32.0731 52.2034 30.6587 53.2776 29.8468L55.5575 28.1236C56.8842 27.1209 57.2584 25.2882 56.4311 23.8456C55.5994 22.3955 53.8152 21.7954 52.2762 22.4484L50.1422 23.3537C48.6115 24.0031 46.8668 23.597 45.538 22.5975C45.0393 22.2224 44.522 21.8782 43.9862 21.5648C43.4364 21.2432 42.8672 20.9542 42.2784 20.6976C40.771 20.0408 39.5715 18.7412 39.3713 17.1091L39.0945 14.8525C38.8891 13.1773 37.4664 11.9184 35.7786 11.9184C34.1026 11.9184 32.686 13.1602 32.4666 14.8218L32.1605 17.1392C31.947 18.7559 30.7527 20.0378 29.2567 20.6868C28.6591 20.946 28.0815 21.2387 27.524 21.5648C26.9742 21.8864 26.4439 22.2362 25.9331 22.6141C24.6326 23.5763 22.9368 23.9546 21.4421 23.3356L19.222 22.4161C17.6865 21.7802 15.9177 22.3836 15.0909 23.8252C14.2584 25.2767 14.6422 27.1214 15.9846 28.1204L18.1942 29.7647C19.2944 30.5834 19.6976 32.012 19.5164 33.3714C19.4171 34.1163 19.3674 34.9108 19.3674 35.7551C19.3674 36.5496 19.4171 37.3193 19.5164 38.0642C19.6979 39.4256 19.3001 40.8565 18.2044 41.6846L15.9527 43.3865C14.626 44.3892 14.2518 46.2219 15.0791 47.6645C15.9109 49.1147 17.695 49.7147 19.234 49.0618L21.3681 48.1564C22.8988 47.507 24.6434 47.9131 25.9722 48.9126C26.471 49.2877 26.9882 49.6319 27.524 49.9453C28.0738 50.2669 28.6431 50.556 29.2318 50.8125C30.7392 51.4694 31.9388 52.769 32.1389 54.401L32.4157 56.6576ZM35.9041 46.1836C38.7844 46.1836 41.2425 45.1656 43.2786 43.1295C45.3146 41.0935 46.3326 38.6353 46.3326 35.7551C46.3326 32.8748 45.3146 30.4166 43.2786 28.3806C41.2425 26.3445 38.7844 25.3265 35.9041 25.3265C32.9742 25.3265 30.5036 26.3445 28.4924 28.3806C26.4812 30.4166 25.4756 32.8748 25.4756 35.7551C25.4756 38.6353 26.4812 41.0935 28.4924 43.1295C30.5036 45.1656 32.9742 46.1836 35.9041 46.1836Z" fill="white"/>
</g>
</svg>
