<svg width="72" height="72" viewBox="0 0 72 72" fill="none" xmlns="http://www.w3.org/2000/svg">
<mask id="mask0_86_230" style="mask-type:alpha" maskUnits="userSpaceOnUse" x="0" y="0" width="72" height="72">
<rect width="71.51" height="71.51" fill="#D9D9D9"/>
</mask>
<g mask="url(#mask0_86_230)">
<path d="M16.5367 49.0139C15.5493 50.0013 13.9392 50.008 13.0336 48.9451C11.0247 46.5872 9.42388 43.9906 8.2311 41.1553C6.71648 37.5549 5.95917 33.7684 5.95917 29.7956C5.95917 25.8228 6.71648 22.0363 8.2311 18.436C9.42388 15.6007 11.0247 13.004 13.0336 10.6461C13.9392 9.58325 15.5493 9.58995 16.5367 10.5773C17.524 11.5646 17.5123 13.1576 16.6261 14.2366C15.0979 16.0973 13.8639 18.1427 12.9239 20.3727C11.6576 23.3771 11.0245 26.5181 11.0245 29.7956C11.0245 33.0732 11.6576 36.2141 12.9239 39.2185C13.8639 41.4486 15.0979 43.4939 16.6261 45.3546C17.5123 46.4336 17.524 48.0266 16.5367 49.0139ZM23.3897 42.1609C22.4024 43.1482 20.7857 43.1578 19.9292 42.055C18.8398 40.6525 17.9573 39.1235 17.2816 37.468C16.2884 35.0347 15.7918 32.4772 15.7918 29.7956C15.7918 27.114 16.2884 24.5565 17.2816 22.1232C17.9573 20.4678 18.8398 18.9388 19.9292 17.5362C20.7857 16.4334 22.4024 16.443 23.3897 17.4303C24.3771 18.4177 24.3533 20.0062 23.5442 21.1442C22.8885 22.0665 22.3529 23.0508 21.9372 24.0972C21.2171 25.9097 20.8571 27.8092 20.8571 29.7956C20.8571 31.782 21.2171 33.6815 21.9372 35.4941C22.3529 36.5405 22.8885 37.5248 23.5442 38.447C24.3533 39.5851 24.3771 41.1735 23.3897 42.1609ZM35.755 62.571C34.1094 62.571 32.7754 61.237 32.7754 59.5914V39.898C32.7754 37.9221 31.4769 36.229 30.1781 34.7398C29.9484 34.4764 29.7341 34.194 29.5351 33.8925C28.7157 32.6511 28.306 31.2854 28.306 29.7956C28.306 27.7099 29.0261 25.947 30.4662 24.5069C31.9064 23.0667 33.6693 22.3467 35.755 22.3467C37.8407 22.3467 39.6036 23.0667 41.0438 24.5069C42.4839 25.947 43.204 27.7099 43.204 29.7956C43.204 31.2854 42.7943 32.6511 41.9749 33.8925C41.7759 34.194 41.5616 34.4764 41.3319 34.7398C40.0331 36.229 38.7346 37.9221 38.7346 39.898V59.5914C38.7346 61.237 37.4006 62.571 35.755 62.571ZM51.5808 42.055C50.7243 43.1578 49.1076 43.1482 48.1203 42.1609C47.1329 41.1735 47.1567 39.5851 47.9658 38.447C48.6215 37.5248 49.1571 36.5405 49.5728 35.4941C50.2929 33.6815 50.6529 31.782 50.6529 29.7956C50.6529 27.8092 50.2929 25.9097 49.5728 24.0972C49.1571 23.0508 48.6215 22.0665 47.9658 21.1442C47.1567 20.0062 47.1329 18.4177 48.1203 17.4303C49.1076 16.443 50.7243 16.4334 51.5808 17.5362C52.6702 18.9388 53.5527 20.4678 54.2284 22.1232C55.2216 24.5565 55.7182 27.114 55.7182 29.7956C55.7182 32.4772 55.2216 35.0347 54.2284 37.468C53.5527 39.1235 52.6702 40.6525 51.5808 42.055ZM58.4764 48.9451C57.5708 50.008 55.9607 50.0013 54.9733 49.0139C53.986 48.0266 53.9977 46.4336 54.8839 45.3546C56.4121 43.4939 57.6461 41.4486 58.5861 39.2185C59.8524 36.2141 60.4855 33.0732 60.4855 29.7956C60.4855 26.5181 59.8524 23.3771 58.5861 20.3727C57.6461 18.1427 56.4121 16.0973 54.8839 14.2366C53.9977 13.1576 53.986 11.5646 54.9733 10.5773C55.9607 9.58995 57.5708 9.58325 58.4764 10.6461C60.4853 13.004 62.0861 15.6007 63.2789 18.436C64.7935 22.0363 65.5508 25.8228 65.5508 29.7956C65.5508 33.7684 64.7935 37.5549 63.2789 41.1553C62.0861 43.9906 60.4853 46.5872 58.4764 48.9451Z" fill="white"/>
</g>
</svg>
