<svg width="72" height="72" viewBox="0 0 72 72" fill="none" xmlns="http://www.w3.org/2000/svg">
<mask id="mask0_67_257" style="mask-type:alpha" maskUnits="userSpaceOnUse" x="0" y="0" width="72" height="72">
<rect width="71.51" height="71.51" fill="#D9D9D9"/>
</mask>
<g mask="url(#mask0_67_257)">
<path d="M11.9183 59.5915C10.2795 59.5915 8.87662 59.008 7.70961 57.841C6.54261 56.674 5.95911 55.2711 5.95911 53.6324V17.8774C5.95911 16.2386 6.54261 14.8357 7.70961 13.6687C8.87662 12.5017 10.2795 11.9182 11.9183 11.9182H47.6733C49.312 11.9182 50.7149 12.5017 51.8819 13.6687C53.0489 14.8357 53.6324 16.2386 53.6324 17.8774V31.2855L65.5508 19.3672V52.1426L53.6324 40.2243V53.6324C53.6324 55.2711 53.0489 56.674 51.8819 57.841C50.7149 59.008 49.312 59.5915 47.6733 59.5915H11.9183Z" fill="white"/>
</g>
</svg>
