<svg width="72" height="72" viewBox="0 0 72 72" fill="none" xmlns="http://www.w3.org/2000/svg">
<mask id="mask0_67_263" style="mask-type:alpha" maskUnits="userSpaceOnUse" x="0" y="0" width="72" height="72">
<rect width="71.51" height="71.51" fill="#D9D9D9"/>
</mask>
<g mask="url(#mask0_67_263)">
<path d="M11.9182 59.5915C10.2794 59.5915 8.87649 59.008 7.70949 57.841C6.54249 56.674 5.95898 55.2711 5.95898 53.6324V17.8774C5.95898 16.2386 6.54249 14.8357 7.70949 13.6687C8.87649 12.5017 10.2794 11.9182 11.9182 11.9182H47.6732C49.3119 11.9182 50.7148 12.5017 51.8818 13.6687C53.0488 14.8357 53.6323 16.2386 53.6323 17.8774V31.2855L65.5507 19.3672V52.1426L53.6323 40.2243V53.6324C53.6323 55.2711 53.0488 56.674 51.8818 57.841C50.7148 59.008 49.3119 59.5915 47.6732 59.5915H11.9182ZM11.9182 53.6324H47.6732V17.8774H11.9182V53.6324Z" fill="white"/>
</g>
</svg>
