<?xml version="1.0" encoding="utf-8"?>
<svg fill="none" height="38" viewBox="0 0 38 38" width="38" xmlns="http://www.w3.org/2000/svg">
<mask height="38" id="mask0_6_1087" maskUnits="userSpaceOnUse" style="mask-type:alpha" width="38" x="0" y="0">
<rect fill="currentColor" height="37" width="37" x="0.5" y="0.5"/>
</mask>
<g mask="url(#mask0_6_1087)">
<path d="M23.625 31.3333C20.1819 31.3333 17.2656 30.1385 14.876 27.7489C12.4864 25.3593 11.2917 22.443 11.2917 19C11.2917 15.5826 12.4864 12.6727 14.876 10.2703C17.2656 7.86784 20.1819 6.66663 23.625 6.66663C27.0424 6.66663 29.9522 7.86784 32.3547 10.2703C34.7571 12.6727 35.9583 15.5826 35.9583 19C35.9583 22.443 34.7571 25.3593 32.3547 27.7489C29.9522 30.1385 27.0424 31.3333 23.625 31.3333ZM27.1323 24.7427L29.3292 22.5458L25.1667 18.3833V12.8333H22.0833V19.6552L27.1323 24.7427ZM3.58332 14.375V11.2916H9.74999V14.375H3.58332ZM2.04166 20.5416V17.4583H9.74999V20.5416H2.04166ZM3.58332 26.7083V23.625H9.74999V26.7083H3.58332Z" fill="currentColor"/>
</g>
</svg>