<?xml version="1.0" encoding="utf-8"?>
<svg fill="none" height="37" viewBox="0 0 38 37" width="38" xmlns="http://www.w3.org/2000/svg">
<mask height="37" id="mask0_6_1104" maskUnits="userSpaceOnUse" style="mask-type:alpha" width="38" x="0" y="0">
<rect fill="currentColor" height="37" width="37" x="0.5"/>
</mask>
<g mask="url(#mask0_6_1104)">
<path d="M14.375 33.9167C12.8847 33.9167 11.4844 33.6341 10.174 33.0688C8.86355 32.5035 7.72015 31.7327 6.74376 30.7563C5.76737 29.7799 4.99654 28.6365 4.43126 27.3261C3.86598 26.0157 3.58334 24.6153 3.58334 23.125C3.58334 21.0438 4.12293 19.1424 5.20209 17.4209C6.28126 15.6993 7.69445 14.3889 9.44168 13.4896C9.95557 12.4875 10.5915 11.6075 11.3495 10.8495C12.1075 10.0915 12.9875 9.4556 13.9896 8.94171C14.8375 7.19449 16.1351 5.78129 17.8823 4.70212C19.6295 3.62296 21.5438 3.08337 23.625 3.08337C25.1153 3.08337 26.5156 3.36601 27.8261 3.93129C29.1365 4.49657 30.2799 5.2674 31.2563 6.24379C32.2326 7.22018 33.0035 8.36358 33.5688 9.674C34.134 10.9844 34.4167 12.3848 34.4167 13.875C34.4167 16.0591 33.8771 17.9862 32.7979 19.6563C31.7188 21.3264 30.3056 22.6112 28.5583 23.5105C28.0445 24.5125 27.4085 25.3926 26.6505 26.1506C25.8925 26.9085 25.0125 27.5445 24.0104 28.0584C23.1111 29.8056 21.8007 31.2188 20.0792 32.298C18.3576 33.3771 16.4563 33.9167 14.375 33.9167ZM14.375 30.8334C15.2229 30.8334 16.0387 30.7049 16.8224 30.448C17.6061 30.191 18.332 29.8056 19 29.2917C17.5097 29.2917 16.1094 29.0091 14.799 28.4438C13.4886 27.8785 12.3451 27.1077 11.3688 26.1313C10.3924 25.1549 9.62154 24.0115 9.05626 22.7011C8.49098 21.3907 8.20834 19.9903 8.20834 18.5C7.69445 19.1681 7.30904 19.894 7.05209 20.6776C6.79515 21.4613 6.66668 22.2771 6.66668 23.125C6.66668 24.2042 6.87223 25.2063 7.28334 26.1313C7.69445 27.0563 8.24689 27.8657 8.94064 28.5594C9.63439 29.2532 10.4438 29.8056 11.3688 30.2167C12.2938 30.6278 13.2958 30.8334 14.375 30.8334ZM19 26.2084C19.8479 26.2084 20.6766 26.0799 21.4859 25.823C22.2953 25.566 23.034 25.1806 23.7021 24.6667C22.1861 24.6667 20.7729 24.3776 19.4625 23.7995C18.1521 23.2214 17.0087 22.4441 16.0323 21.4677C15.0559 20.4914 14.2787 19.348 13.7005 18.0375C13.1224 16.7271 12.8333 15.3139 12.8333 13.798C12.3195 14.466 11.934 15.2047 11.6771 16.0141C11.4201 16.8235 11.2917 17.6521 11.2917 18.5C11.2917 19.5792 11.4908 20.5813 11.8891 21.5063C12.2873 22.4313 12.8462 23.2407 13.5656 23.9344C14.2594 24.6539 15.0688 25.2127 15.9938 25.611C16.9188 26.0092 17.9208 26.2084 19 26.2084ZM23.625 21.5834C24.0875 21.5834 24.5307 21.5448 24.9547 21.4677C25.3787 21.3907 25.809 21.275 26.2458 21.1209C26.8111 19.5792 26.8946 18.0954 26.4964 16.6693C26.0981 15.2433 25.4108 14.0421 24.4344 13.0657C23.458 12.0893 22.2568 11.402 20.8307 11.0037C19.4047 10.6054 17.9208 10.6889 16.3792 11.2542C16.225 11.691 16.1094 12.1214 16.0323 12.5454C15.9552 12.9693 15.9167 13.4125 15.9167 13.875C15.9167 14.9542 16.1158 15.9563 16.5141 16.8813C16.9123 17.8063 17.4712 18.6157 18.1906 19.3094C18.8844 20.0289 19.6938 20.5877 20.6188 20.986C21.5438 21.3842 22.5458 21.5834 23.625 21.5834ZM29.7917 18.5771C30.3056 17.9091 30.691 17.1704 30.9479 16.361C31.2049 15.5516 31.3333 14.723 31.3333 13.875C31.3333 12.7959 31.1342 11.7938 30.7359 10.8688C30.3377 9.94379 29.7788 9.13442 29.0594 8.44067C28.3656 7.72122 27.5563 7.16237 26.6313 6.7641C25.7063 6.36584 24.7042 6.16671 23.625 6.16671C22.7257 6.16671 21.8842 6.29518 21.1005 6.55212C20.3169 6.80907 19.591 7.19449 18.9229 7.70837C20.4389 7.70837 21.8521 7.99744 23.1625 8.57556C24.4729 9.15369 25.6163 9.93094 26.5927 10.9073C27.5691 11.8837 28.3464 13.0271 28.9245 14.3375C29.5026 15.648 29.7917 17.0612 29.7917 18.5771Z" fill="currentColor"/>
</g>
</svg>