<?xml version="1.0" encoding="utf-8"?>
<svg fill="currentColor" height="26" viewBox="0 0 20 26" width="20" xmlns="http://www.w3.org/2000/svg">
<path d="M10 6.75C8.625 6.75 7.44792 7.23958 6.46875 8.21875C5.48958 9.19792 5 10.375 5 11.75C5 13.125 5.48958 14.3021 6.46875 15.2812C7.44792 16.2604 8.625 16.75 10 16.75C11.375 16.75 12.5521 16.2604 13.5312 15.2812C14.5104 14.3021 15 13.125 15 11.75C15 10.375 14.5104 9.19792 13.5312 8.21875C12.5521 7.23958 11.375 6.75 10 6.75ZM10 14.25C9.3125 14.25 8.72396 14.0052 8.23438 13.5156C7.74479 13.026 7.5 12.4375 7.5 11.75C7.5 11.0625 7.74479 10.474 8.23438 9.98438C8.72396 9.49479 9.3125 9.25 10 9.25C10.6875 9.25 11.276 9.49479 11.7656 9.98438C12.2552 10.474 12.5 11.0625 12.5 11.75C12.5 12.4375 12.2552 13.026 11.7656 13.5156C11.276 14.0052 10.6875 14.25 10 14.25ZM15 19.25C15.3542 19.25 15.651 19.1302 15.8906 18.8906C16.1302 18.651 16.25 18.3542 16.25 18C16.25 17.6458 16.1302 17.349 15.8906 17.1094C15.651 16.8698 15.3542 16.75 15 16.75C14.6458 16.75 14.349 16.8698 14.1094 17.1094C13.8698 17.349 13.75 17.6458 13.75 18C13.75 18.3542 13.8698 18.651 14.1094 18.8906C14.349 19.1302 14.6458 19.25 15 19.25ZM0 25.5V6.75C0 5.02083 0.609375 3.54688 1.82812 2.32812C3.04688 1.10937 4.52083 0.5 6.25 0.5H13.75C15.4792 0.5 16.9531 1.10937 18.1719 2.32812C19.3906 3.54688 20 5.02083 20 6.75V25.5H0ZM2.5 20.5H17.5V6.75C17.5 5.70833 17.1354 4.82292 16.4062 4.09375C15.6771 3.36458 14.7917 3 13.75 3H6.25C5.20833 3 4.32292 3.36458 3.59375 4.09375C2.86458 4.82292 2.5 5.70833 2.5 6.75V20.5Z" fill="currentColor"/>
</svg>