<svg width="20" height="19" viewBox="0 0 20 19" fill="currentColor" xmlns="http://www.w3.org/2000/svg">
<path d="M3.55 13.5C3.21863 13.8314 2.67823 13.8336 2.37431 13.4769C1.70009 12.6855 1.16282 11.8141 0.7625 10.8625C0.254167 9.65417 0 8.38333 0 7.05C0 5.71667 0.254167 4.44583 0.7625 3.2375C1.16282 2.28593 1.70009 1.41446 2.37431 0.623096C2.67823 0.266378 3.21863 0.268629 3.55 0.6C3.88137 0.931371 3.87742 1.46599 3.58 1.82814C3.06712 2.45261 2.65296 3.13907 2.3375 3.8875C1.9125 4.89583 1.7 5.95 1.7 7.05C1.7 8.15 1.9125 9.20417 2.3375 10.2125C2.65296 10.9609 3.06712 11.6474 3.58 12.2719C3.87742 12.634 3.88137 13.1686 3.55 13.5ZM5.85 11.2C5.51863 11.5314 4.97603 11.5346 4.68858 11.1645C4.32296 10.6937 4.02677 10.1806 3.8 9.625C3.46667 8.80834 3.3 7.95 3.3 7.05C3.3 6.15 3.46667 5.29167 3.8 4.475C4.02677 3.91942 4.32296 3.40626 4.68858 2.93552C4.97604 2.56541 5.51863 2.56863 5.85 2.9C6.18137 3.23137 6.17338 3.76449 5.90184 4.14643C5.68179 4.45596 5.50201 4.78632 5.3625 5.1375C5.12083 5.74583 5 6.38333 5 7.05C5 7.71667 5.12083 8.35417 5.3625 8.9625C5.50201 9.31369 5.68179 9.64404 5.90184 9.95357C6.17338 10.3355 6.18137 10.8686 5.85 11.2ZM10 18.05C9.44772 18.05 9 17.6023 9 17.05V10.7978C9 9.91738 8.39746 9.15979 7.9125 8.425C7.6375 8.00833 7.5 7.55 7.5 7.05C7.5 6.35 7.74167 5.75833 8.225 5.275C8.70833 4.79167 9.3 4.55 10 4.55C10.7 4.55 11.2917 4.79167 11.775 5.275C12.2583 5.75833 12.5 6.35 12.5 7.05C12.5 7.55 12.3625 8.00833 12.0875 8.425C11.6025 9.15979 11 9.91738 11 10.7978V17.05C11 17.6023 10.5523 18.05 10 18.05ZM15.3114 11.1645C15.024 11.5346 14.4814 11.5314 14.15 11.2C13.8186 10.8686 13.8266 10.3355 14.0982 9.95357C14.3182 9.64404 14.498 9.31369 14.6375 8.9625C14.8792 8.35417 15 7.71667 15 7.05C15 6.38333 14.8792 5.74583 14.6375 5.1375C14.498 4.78632 14.3182 4.45596 14.0982 4.14643C13.8266 3.76449 13.8186 3.23137 14.15 2.9C14.4814 2.56863 15.024 2.56541 15.3114 2.93552C15.677 3.40626 15.9732 3.91942 16.2 4.475C16.5333 5.29167 16.7 6.15 16.7 7.05C16.7 7.95 16.5333 8.80834 16.2 9.625C15.9732 10.1806 15.677 10.6937 15.3114 11.1645ZM17.6257 13.4769C17.3218 13.8336 16.7814 13.8314 16.45 13.5C16.1186 13.1686 16.1226 12.634 16.42 12.2719C16.9329 11.6474 17.347 10.9609 17.6625 10.2125C18.0875 9.20417 18.3 8.15 18.3 7.05C18.3 5.95 18.0875 4.89583 17.6625 3.8875C17.347 3.13907 16.9329 2.45261 16.42 1.82814C16.1226 1.46599 16.1186 0.931371 16.45 0.6C16.7814 0.268629 17.3218 0.266378 17.6257 0.623096C18.2999 1.41446 18.8372 2.28593 19.2375 3.2375C19.7458 4.44583 20 5.71667 20 7.05C20 8.38333 19.7458 9.65417 19.2375 10.8625C18.8372 11.8141 18.2999 12.6855 17.6257 13.4769Z" fill="currentColor"/>
</svg>
