<svg width="20" height="20" viewBox="0 0 20 20" fill="currentColor" xmlns="http://www.w3.org/2000/svg">
<path d="M2.22222 20C1.90741 20 1.64352 19.8935 1.43056 19.6806C1.21759 19.4676 1.11111 19.2037 1.11111 18.8889V17.7778H0V13.3333C0 13.0185 0.106481 12.7546 0.319444 12.5417C0.532407 12.3287 0.796296 12.2222 1.11111 12.2222H2.22222V4.44444C2.22222 3.22222 2.65741 2.17593 3.52778 1.30556C4.39815 0.435185 5.44444 0 6.66667 0C7.88889 0 8.93519 0.435185 9.80556 1.30556C10.6759 2.17593 11.1111 3.22222 11.1111 4.44444V15.5556C11.1111 16.1667 11.3287 16.6898 11.7639 17.125C12.1991 17.5602 12.7222 17.7778 13.3333 17.7778C13.9444 17.7778 14.4676 17.5602 14.9028 17.125C15.338 16.6898 15.5556 16.1667 15.5556 15.5556V7.77778H14.4444C14.1296 7.77778 13.8657 7.6713 13.6528 7.45833C13.4398 7.24537 13.3333 6.98148 13.3333 6.66667V2.22222H14.4444V1.11111C14.4444 0.796296 14.5509 0.532407 14.7639 0.319444C14.9769 0.106481 15.2407 0 15.5556 0H17.7778C18.0926 0 18.3565 0.106481 18.5694 0.319444C18.7824 0.532407 18.8889 0.796296 18.8889 1.11111V2.22222H20V6.66667C20 6.98148 19.8935 7.24537 19.6806 7.45833C19.4676 7.6713 19.2037 7.77778 18.8889 7.77778H17.7778V15.5556C17.7778 16.7778 17.3426 17.8241 16.4722 18.6944C15.6019 19.5648 14.5556 20 13.3333 20C12.1111 20 11.0648 19.5648 10.1944 18.6944C9.32407 17.8241 8.88889 16.7778 8.88889 15.5556V4.44444C8.88889 3.83333 8.6713 3.31019 8.23611 2.875C7.80093 2.43982 7.27778 2.22222 6.66667 2.22222C6.05556 2.22222 5.53241 2.43982 5.09722 2.875C4.66204 3.31019 4.44444 3.83333 4.44444 4.44444V12.2222H5.55556C5.87037 12.2222 6.13426 12.3287 6.34722 12.5417C6.56019 12.7546 6.66667 13.0185 6.66667 13.3333V17.7778H5.55556V18.8889C5.55556 19.2037 5.44907 19.4676 5.23611 19.6806C5.02315 19.8935 4.75926 20 4.44444 20H2.22222Z" fill="currentColor"/>
</svg>
