<svg width="23" height="24" viewBox="0 0 23 24" fill="none" xmlns="http://www.w3.org/2000/svg">
<path d="M2.75 23.25C2.39583 23.25 2.09896 23.1302 1.85938 22.8906C1.61979 22.651 1.5 22.3542 1.5 22V20.75H0.25V15.75C0.25 15.3958 0.369792 15.099 0.609375 14.8594C0.848958 14.6198 1.14583 14.5 1.5 14.5H2.75V5.75C2.75 4.375 3.23958 3.19792 4.21875 2.21875C5.19792 1.23958 6.375 0.75 7.75 0.75C9.125 0.75 10.3021 1.23958 11.2812 2.21875C12.2604 3.19792 12.75 4.375 12.75 5.75V18.25C12.75 18.9375 12.9948 19.526 13.4844 20.0156C13.974 20.5052 14.5625 20.75 15.25 20.75C15.9375 20.75 16.526 20.5052 17.0156 20.0156C17.5052 19.526 17.75 18.9375 17.75 18.25V9.5H16.5C16.1458 9.5 15.849 9.38021 15.6094 9.14062C15.3698 8.90104 15.25 8.60417 15.25 8.25V3.25H16.5V2C16.5 1.64583 16.6198 1.34896 16.8594 1.10938C17.099 0.869792 17.3958 0.75 17.75 0.75H20.25C20.6042 0.75 20.901 0.869792 21.1406 1.10938C21.3802 1.34896 21.5 1.64583 21.5 2V3.25H22.75V8.25C22.75 8.60417 22.6302 8.90104 22.3906 9.14062C22.151 9.38021 21.8542 9.5 21.5 9.5H20.25V18.25C20.25 19.625 19.7604 20.8021 18.7812 21.7812C17.8021 22.7604 16.625 23.25 15.25 23.25C13.875 23.25 12.6979 22.7604 11.7188 21.7812C10.7396 20.8021 10.25 19.625 10.25 18.25V5.75C10.25 5.0625 10.0052 4.47396 9.51562 3.98438C9.02604 3.49479 8.4375 3.25 7.75 3.25C7.0625 3.25 6.47396 3.49479 5.98438 3.98438C5.49479 4.47396 5.25 5.0625 5.25 5.75V14.5H6.5C6.85417 14.5 7.15104 14.6198 7.39062 14.8594C7.63021 15.099 7.75 15.3958 7.75 15.75V20.75H6.5V22C6.5 22.3542 6.38021 22.651 6.14062 22.8906C5.90104 23.1302 5.60417 23.25 5.25 23.25H2.75Z" fill="#66C58C"/>
</svg>
