<svg width="72" height="72" viewBox="0 0 72 72" fill="none" xmlns="http://www.w3.org/2000/svg">
<mask id="mask0_86_2516" style="mask-type:alpha" maskUnits="userSpaceOnUse" x="0" y="0" width="72" height="72">
<rect width="71.51" height="71.51" fill="#D9D9D9"/>
</mask>
<g mask="url(#mask0_86_2516)">
<path d="M10.9592 65.5508C8.19774 65.5508 5.95917 63.3122 5.95917 60.5508V52.6733C5.95917 49.9118 8.19774 47.6733 10.9592 47.6733H18.8367C21.5981 47.6733 23.8367 49.9118 23.8367 52.6733V60.5508C23.8367 63.3122 21.5981 65.5508 18.8367 65.5508H10.9592ZM31.8163 65.5508C29.0548 65.5508 26.8162 63.3122 26.8162 60.5508V52.6733C26.8162 49.9118 29.0548 47.6733 31.8162 47.6733H39.6937C42.4552 47.6733 44.6937 49.9118 44.6937 52.6733V60.5508C44.6937 63.3122 42.4552 65.5508 39.6937 65.5508H31.8163ZM52.6733 65.5508C49.9119 65.5508 47.6733 63.3122 47.6733 60.5508V52.6733C47.6733 49.9118 49.9119 47.6733 52.6733 47.6733H60.5508C63.3123 47.6733 65.5508 49.9118 65.5508 52.6733V60.5508C65.5508 63.3122 63.3123 65.5508 60.5508 65.5508H52.6733ZM10.9592 44.6937C8.19774 44.6937 5.95917 42.4551 5.95917 39.6937V31.8162C5.95917 29.0548 8.19774 26.8162 10.9592 26.8162H18.8367C21.5981 26.8162 23.8367 29.0548 23.8367 31.8162V39.6937C23.8367 42.4551 21.5981 44.6937 18.8367 44.6937H10.9592ZM31.8163 44.6937C29.0548 44.6937 26.8162 42.4551 26.8162 39.6937V31.8162C26.8162 29.0548 29.0548 26.8162 31.8162 26.8162H39.6937C42.4552 26.8162 44.6937 29.0548 44.6937 31.8162V39.6937C44.6937 42.4551 42.4552 44.6937 39.6937 44.6937H31.8163ZM52.6733 44.6937C49.9119 44.6937 47.6733 42.4551 47.6733 39.6937V31.8162C47.6733 29.0548 49.9119 26.8162 52.6733 26.8162H60.5508C63.3123 26.8162 65.5508 29.0548 65.5508 31.8162V39.6937C65.5508 42.4551 63.3123 44.6937 60.5508 44.6937H52.6733ZM10.9592 23.8366C8.19774 23.8366 5.95917 21.598 5.95917 18.8366V10.9591C5.95917 8.19768 8.19774 5.95911 10.9592 5.95911H18.8367C21.5981 5.95911 23.8367 8.19768 23.8367 10.9591V18.8366C23.8367 21.598 21.5981 23.8366 18.8367 23.8366H10.9592ZM31.8163 23.8366C29.0548 23.8366 26.8162 21.598 26.8162 18.8366V10.9591C26.8162 8.19768 29.0548 5.95911 31.8162 5.95911H39.6937C42.4552 5.95911 44.6937 8.19768 44.6937 10.9591V18.8366C44.6937 21.598 42.4552 23.8366 39.6937 23.8366H31.8163ZM52.6733 23.8366C49.9119 23.8366 47.6733 21.598 47.6733 18.8366V10.9591C47.6733 8.19768 49.9119 5.95911 52.6733 5.95911H60.5508C63.3123 5.95911 65.5508 8.19768 65.5508 10.9591V18.8366C65.5508 21.598 63.3123 23.8366 60.5508 23.8366H52.6733ZM11.9183 56.612C11.9183 58.2576 13.2523 59.5916 14.8979 59.5916C16.5435 59.5916 17.8775 58.2576 17.8775 56.612C17.8775 54.9664 16.5435 53.6324 14.8979 53.6324C13.2523 53.6324 11.9183 54.9664 11.9183 56.612ZM32.7754 56.612C32.7754 58.2576 34.1094 59.5916 35.755 59.5916C37.4006 59.5916 38.7346 58.2576 38.7346 56.612C38.7346 54.9664 37.4006 53.6324 35.755 53.6324C34.1094 53.6324 32.7754 54.9664 32.7754 56.612ZM53.6325 56.612C53.6325 58.2576 54.9665 59.5916 56.6121 59.5916C58.2577 59.5916 59.5917 58.2576 59.5917 56.612C59.5917 54.9664 58.2577 53.6324 56.6121 53.6324C54.9665 53.6324 53.6325 54.9664 53.6325 56.612ZM11.9183 35.7549C11.9183 37.4005 13.2523 38.7345 14.8979 38.7345C16.5435 38.7345 17.8775 37.4005 17.8775 35.7549C17.8775 34.1094 16.5435 32.7754 14.8979 32.7754C13.2523 32.7754 11.9183 34.1094 11.9183 35.7549ZM32.7754 35.7549C32.7754 37.4005 34.1094 38.7345 35.755 38.7345C37.4006 38.7345 38.7346 37.4005 38.7346 35.7549C38.7346 34.1094 37.4006 32.7754 35.755 32.7754C34.1094 32.7754 32.7754 34.1094 32.7754 35.7549ZM53.6325 35.7549C53.6325 37.4005 54.9665 38.7345 56.6121 38.7345C58.2577 38.7345 59.5917 37.4005 59.5917 35.7549C59.5917 34.1094 58.2577 32.7754 56.6121 32.7754C54.9665 32.7754 53.6325 34.1094 53.6325 35.7549ZM32.7754 14.8979C32.7754 16.5434 34.1094 17.8774 35.755 17.8774C37.4006 17.8774 38.7346 16.5434 38.7346 14.8979C38.7346 13.2523 37.4006 11.9183 35.755 11.9183C34.1094 11.9183 32.7754 13.2523 32.7754 14.8979ZM53.6325 14.8979C53.6325 16.5434 54.9665 17.8774 56.6121 17.8774C58.2577 17.8774 59.5917 16.5434 59.5917 14.8979C59.5917 13.2523 58.2577 11.9183 56.6121 11.9183C54.9665 11.9183 53.6325 13.2523 53.6325 14.8979Z" fill="white"/>
</g>
</svg>
