<?xml version="1.0" encoding="utf-8"?>
<svg fill="currentColor" height="28" viewBox="0 0 26 28" width="26" xmlns="http://www.w3.org/2000/svg">
<path d="M11.75 11.3614L4.34375 7.15795L3 7.925V9.21364L11.75 14.1841L20.5 9.21364V7.925L19.1562 7.15795L11.75 11.3614ZM10.5 24.708L1.75 19.7682C1.35417 19.5432 1.04688 19.2466 0.828125 18.8784C0.609375 18.5102 0.5 18.1011 0.5 17.6511V7.89432C0.5 7.44432 0.609375 7.03523 0.828125 6.66705C1.04688 6.29886 1.35417 6.00227 1.75 5.77727L10.5 0.8375C10.8958 0.6125 11.3125 0.5 11.75 0.5C12.1875 0.5 12.6042 0.6125 13 0.8375L21.75 5.77727C22.1458 6.00227 22.4531 6.29886 22.6719 6.66705C22.8906 7.03523 23 7.44432 23 7.89432V13.6011C22.4375 13.3352 21.8385 13.1307 21.2031 12.9875C20.5677 12.8443 19.9167 12.7727 19.25 12.7727C16.8333 12.7727 14.7708 13.6114 13.0625 15.2886C11.3542 16.9659 10.5 18.9909 10.5 21.3636C10.5 22.0182 10.5677 22.6472 10.7031 23.2506C10.8385 23.854 11.0417 24.4318 11.3125 24.9841C11.1667 24.9432 11.026 24.9074 10.8906 24.8767C10.7552 24.846 10.625 24.7898 10.5 24.708ZM19.25 27.5C17.5208 27.5 16.0469 26.9017 14.8281 25.7051C13.6094 24.5085 13 23.0614 13 21.3636C13 19.6659 13.6094 18.2188 14.8281 17.0222C16.0469 15.8256 17.5208 15.2273 19.25 15.2273C20.9792 15.2273 22.4531 15.8256 23.6719 17.0222C24.8906 18.2188 25.5 19.6659 25.5 21.3636C25.5 23.0614 24.8906 24.5085 23.6719 25.7051C22.4531 26.9017 20.9792 27.5 19.25 27.5ZM19.875 21.1182V17.6818H18.625V21.6091L21.3125 24.2477L22.1875 23.3886L19.875 21.1182Z" fill="currentColor"/>
</svg>