<svg width="20" height="41" viewBox="0 0 20 41" fill="currentColor" xmlns="http://www.w3.org/2000/svg">
<path d="M10 40.5C7.23333 40.5 4.875 39.525 2.925 37.575C0.975 35.625 0 33.2667 0 30.5C0 28.9 0.35 27.4083 1.05 26.025C1.75 24.6417 2.73333 23.4667 4 22.5V6.5C4 4.83333 4.58333 3.41667 5.75 2.25C6.91667 1.08333 8.33333 0.5 10 0.5C11.6667 0.5 13.0833 1.08333 14.25 2.25C15.4167 3.41667 16 4.83333 16 6.5V22.5C17.2667 23.4667 18.25 24.6417 18.95 26.025C19.65 27.4083 20 28.9 20 30.5C20 33.2667 19.025 35.625 17.075 37.575C15.125 39.525 12.7667 40.5 10 40.5ZM8 18.5H12V16.5H10V14.5H12V10.5H10V8.5H12V6.5C12 5.93333 11.8083 5.45833 11.425 5.075C11.0417 4.69167 10.5667 4.5 10 4.5C9.43333 4.5 8.95833 4.69167 8.575 5.075C8.19167 5.45833 8 5.93333 8 6.5V18.5Z" fill="currentColor"/>
</svg>
