<?xml version="1.0" encoding="utf-8"?>
<svg fill="none" height="37" viewBox="0 0 38 37" width="38" xmlns="http://www.w3.org/2000/svg">
<mask height="37" id="mask0_6_1082" maskUnits="userSpaceOnUse" style="mask-type:alpha" width="38" x="0" y="0">
<rect fill="currentColor" height="37" width="37" x="0.5"/>
</mask>
<g mask="url(#mask0_6_1082)">
<path d="M7.12499 32.375C6.02042 32.375 5.12498 31.4796 5.12498 30.375V26.6667C5.12498 25.5621 6.02042 24.6667 7.12498 24.6667H10.4632C10.9937 24.6667 11.5024 24.456 11.8774 24.0809L16.8725 19.0858C17.2476 18.7107 17.4583 18.202 17.4583 17.6716V14.9708C17.4583 14.1282 16.8994 13.4122 16.2229 12.9098C15.8432 12.6279 15.5099 12.288 15.2229 11.8901C14.6576 11.1064 14.375 10.2264 14.375 9.25C14.375 7.96528 14.8246 6.87326 15.7239 5.97396C16.6232 5.07465 17.7153 4.625 19 4.625C20.2847 4.625 21.3767 5.07465 22.276 5.97396C23.1753 6.87326 23.625 7.96528 23.625 9.25C23.625 10.2264 23.3423 11.1064 22.7771 11.8901C22.4901 12.288 22.1568 12.6279 21.7771 12.9098C21.1006 13.4122 20.5416 14.1282 20.5416 14.9708V17.6716C20.5416 18.202 20.7524 18.7107 21.1274 19.0858L26.1225 24.0809C26.4976 24.4559 27.0063 24.6667 27.5367 24.6667H30.875C31.9796 24.6667 32.875 25.5621 32.875 26.6667V30.375C32.875 31.4796 31.9796 32.375 30.875 32.375H27.1667C26.0621 32.375 25.1666 31.4796 25.1666 30.375V28.5013C25.1666 27.9709 24.9559 27.4622 24.5809 27.0871L20.4142 22.9205C19.6331 22.1394 18.3668 22.1394 17.5858 22.9205L13.4191 27.0871C13.044 27.4622 12.8333 27.9709 12.8333 28.5013V30.375C12.8333 31.4796 11.9379 32.375 10.8333 32.375H7.12499Z" fill="currentColor"/>
</g>
</svg>