<?xml version="1.0" encoding="utf-8"?>
<svg fill="none" height="37" viewBox="0 0 38 37" width="38" xmlns="http://www.w3.org/2000/svg">
<mask height="37" id="mask0_6_1109" maskUnits="userSpaceOnUse" style="mask-type:alpha" width="38" x="0" y="0">
<rect fill="currentColor" height="37" width="37" x="0.5"/>
</mask>
<g mask="url(#mask0_6_1109)">
<path d="M14.4136 33.9167C14.0538 33.9167 13.7391 33.8204 13.4693 33.6276C13.1995 33.4349 13.0132 33.1716 12.9104 32.8375L9.19618 20.748C9.0672 20.3282 8.67944 20.0417 8.24027 20.0417H4.58334C4.03106 20.0417 3.58334 19.594 3.58334 19.0417V17.9584C3.58334 17.4061 4.03106 16.9584 4.58334 16.9584H10.1354C10.4695 16.9584 10.7714 17.0547 11.0412 17.2474C11.3109 17.4401 11.4972 17.7035 11.6 18.0375L13.0332 22.7064C13.3346 23.6879 14.7424 23.6323 14.9654 22.63L19.0386 4.31671C19.1156 3.95699 19.2955 3.6615 19.5781 3.43025C19.8608 3.199 20.182 3.08337 20.5417 3.08337C20.9014 3.08337 21.2226 3.19258 21.5052 3.41098C21.7879 3.62938 21.9677 3.91844 22.0448 4.27817L24.5682 15.184C24.798 16.1772 26.1925 16.23 26.4969 15.2571L27.5563 11.8709C27.659 11.5368 27.8453 11.2735 28.1151 11.0808C28.3849 10.8881 28.6868 10.7917 29.0208 10.7917C29.3549 10.7917 29.6504 10.8816 29.9073 11.0615C30.1642 11.2414 30.357 11.4855 30.4854 11.7938L32.1698 16.308C32.3158 16.6991 32.6893 16.9584 33.1067 16.9584H33.4167C33.969 16.9584 34.4167 17.4061 34.4167 17.9584V19.0417C34.4167 19.594 33.969 20.0417 33.4167 20.0417H31.3333C30.9993 20.0417 30.7038 19.9518 30.4469 19.7719C30.1899 19.5921 29.9972 19.348 29.8688 19.0396C29.6303 18.3995 28.7164 18.4247 28.5135 19.077L26.6313 25.1292C26.5285 25.4632 26.3358 25.733 26.0531 25.9386C25.7705 26.1441 25.4493 26.2341 25.0896 26.2084C24.7299 26.1827 24.4215 26.0606 24.1646 25.8422C23.9076 25.6238 23.7406 25.3476 23.6636 25.0136L21.5413 15.896C21.3 14.8589 19.8205 14.8673 19.5909 15.9071L15.8781 32.7219C15.8011 33.0816 15.6276 33.3643 15.3578 33.5698C15.088 33.7754 14.7733 33.891 14.4136 33.9167Z" fill="currentColor"/>
</g>
</svg>