<?xml version="1.0" encoding="utf-8"?>
<svg fill="none" height="29" viewBox="0 0 28 29" width="28" xmlns="http://www.w3.org/2000/svg">
<path d="M2.125 12.9583C1.02043 12.9583 0.125 12.0629 0.125 10.9583V2.625C0.125 1.52043 1.02043 0.625 2.125 0.625H10.4583C11.5629 0.625 12.4583 1.52043 12.4583 2.625V10.9583C12.4583 12.0629 11.5629 12.9583 10.4583 12.9583H2.125ZM2.125 28.375C1.02043 28.375 0.125 27.4796 0.125 26.375V18.0417C0.125 16.9371 1.02043 16.0417 2.125 16.0417H10.4583C11.5629 16.0417 12.4583 16.9371 12.4583 18.0417V26.375C12.4583 27.4796 11.5629 28.375 10.4583 28.375H2.125ZM17.5417 12.9583C16.4371 12.9583 15.5417 12.0629 15.5417 10.9583V2.625C15.5417 1.52043 16.4371 0.625 17.5417 0.625H25.875C26.9796 0.625 27.875 1.52043 27.875 2.625V10.9583C27.875 12.0629 26.9796 12.9583 25.875 12.9583H17.5417ZM17.5417 28.375C16.4371 28.375 15.5417 27.4796 15.5417 26.375V18.0417C15.5417 16.9371 16.4371 16.0417 17.5417 16.0417H25.875C26.9796 16.0417 27.875 16.9371 27.875 18.0417V26.375C27.875 27.4796 26.9796 28.375 25.875 28.375H17.5417Z" fill="currentColor"/>
</svg>