<?xml version="1.0" encoding="utf-8"?>
<svg fill="none" height="37" viewBox="0 0 38 37" width="38" xmlns="http://www.w3.org/2000/svg">
<mask height="37" id="mask0_6_1092" maskUnits="userSpaceOnUse" style="mask-type:alpha" width="38" x="0" y="0">
<rect fill="currentColor" height="37" width="37" x="0.5"/>
</mask>
<g mask="url(#mask0_6_1092)">
<path d="M7.125 32.375C6.02043 32.375 5.125 31.4796 5.125 30.375V26.6667C5.125 25.5621 6.02043 24.6667 7.125 24.6667H10.4632C10.9937 24.6667 11.5024 24.4559 11.8775 24.0809L16.8725 19.0858C17.2476 18.7107 17.4583 18.202 17.4583 17.6716V14.9708C17.4583 14.1282 16.8994 13.4122 16.2229 12.9098C15.8432 12.6279 15.5099 12.288 15.2229 11.8901C14.6576 11.1064 14.375 10.2264 14.375 9.25C14.375 7.96528 14.8247 6.87326 15.724 5.97396C16.6233 5.07465 17.7153 4.625 19 4.625C20.2847 4.625 21.3767 5.07465 22.276 5.97396C23.1753 6.87326 23.625 7.96528 23.625 9.25C23.625 10.2264 23.3424 11.1064 22.7771 11.8901C22.4901 12.288 22.1568 12.6279 21.7771 12.9098C21.1006 13.4122 20.5417 14.1282 20.5417 14.9708V17.6716C20.5417 18.202 20.7524 18.7107 21.1275 19.0858L26.1225 24.0809C26.4976 24.4559 27.0063 24.6667 27.5368 24.6667H30.875C31.9796 24.6667 32.875 25.5621 32.875 26.6667V30.375C32.875 31.4796 31.9796 32.375 30.875 32.375H27.1667C26.0621 32.375 25.1667 31.4796 25.1667 30.375V28.5013C25.1667 27.9709 24.9559 27.4622 24.5809 27.0871L20.4142 22.9205C19.6332 22.1394 18.3668 22.1394 17.5858 22.9205L13.4191 27.0871C13.044 27.4622 12.8333 27.9709 12.8333 28.5013V30.375C12.8333 31.4796 11.9379 32.375 10.8333 32.375H7.125Z" fill="currentColor"/>
</g>
<mask height="14" id="mask1_6_1092" maskUnits="userSpaceOnUse" style="mask-type:alpha" width="13" x="2" y="9">
<rect fill="currentColor" height="12.4178" transform="rotate(-180 14.9875 22.2487)" width="12.4178" x="14.9875" y="22.2487"/>
</mask>
<g mask="url(#mask1_6_1092)">
<path d="M6.76067 10.9174L7.49797 11.6547C6.92882 12.2238 6.48256 12.8814 6.15918 13.6273C5.83579 14.3733 5.6741 15.1774 5.6741 16.0397C5.6741 16.9021 5.83579 17.7062 6.15918 18.4522C6.48256 19.1981 6.92882 19.8556 7.49797 20.4248L6.76067 21.1621C6.10528 20.5067 5.58787 19.7414 5.20844 18.8661C4.829 17.9908 4.63928 17.0487 4.63928 16.0397C4.63928 15.0308 4.829 14.0887 5.20844 13.2134C5.58787 12.3381 6.10528 11.5728 6.76067 10.9174ZM8.22235 12.3791L8.95966 13.1164C8.58022 13.4958 8.28271 13.9356 8.06713 14.4358C7.85154 14.9359 7.74374 15.4706 7.74374 16.0397C7.74374 16.6089 7.85154 17.1436 8.06713 17.6437C8.28271 18.1439 8.58022 18.5837 8.95966 18.9631L8.22235 19.7004C7.75668 19.2348 7.38803 18.6872 7.11638 18.0576C6.84474 17.4281 6.70892 16.7555 6.70892 16.0397C6.70892 15.324 6.84474 14.6514 7.11638 14.0218C7.38803 13.3923 7.75668 12.8447 8.22235 12.3791ZM9.68403 13.8408L10.4213 14.5781C10.2316 14.7678 10.0829 14.9877 9.97508 15.2378C9.86728 15.4878 9.81339 15.7552 9.81339 16.0397C9.81339 16.3243 9.86728 16.5917 9.97508 16.8417C10.0829 17.0918 10.2316 17.3117 10.4213 17.5014L9.68403 18.2387C9.40808 17.9628 9.18818 17.6351 9.02434 17.2557C8.86049 16.8762 8.77857 16.4709 8.77857 16.0397C8.77857 15.6086 8.86049 15.2033 9.02434 14.8238C9.18818 14.4444 9.40808 14.1167 9.68403 13.8408ZM12.9178 11.9005V20.179H11.883V17.0746C11.5985 17.0746 11.3548 16.9732 11.1522 16.7706C10.9495 16.5679 10.8482 16.3243 10.8482 16.0397C10.8482 15.7552 10.9495 15.5116 11.1522 15.3089C11.3548 15.1063 11.5985 15.0049 11.883 15.0049V11.9005H12.9178Z" fill="currentColor"/>
</g>
<mask height="14" id="mask2_6_1092" maskUnits="userSpaceOnUse" style="mask-type:alpha" width="13" x="23" y="9">
<rect fill="currentColor" height="12.4178" transform="matrix(1 0 0 -1 23.2661 22.2487)" width="12.4178"/>
</mask>
<g mask="url(#mask2_6_1092)">
<path d="M31.4929 10.9174L30.7556 11.6547C31.3247 12.2238 31.771 12.8814 32.0944 13.6273C32.4177 14.3733 32.5794 15.1774 32.5794 16.0397C32.5794 16.9021 32.4177 17.7062 32.0944 18.4522C31.771 19.1981 31.3247 19.8556 30.7556 20.4248L31.4929 21.1621C32.1483 20.5067 32.6657 19.7414 33.0451 18.8661C33.4245 17.9908 33.6143 17.0487 33.6143 16.0397C33.6143 15.0308 33.4245 14.0887 33.0451 13.2134C32.6657 12.3381 32.1483 11.5728 31.4929 10.9174ZM30.0312 12.3791L29.2939 13.1164C29.6733 13.4958 29.9708 13.9356 30.1864 14.4358C30.402 14.9359 30.5098 15.4706 30.5098 16.0397C30.5098 16.6089 30.402 17.1436 30.1864 17.6437C29.9708 18.1439 29.6733 18.5837 29.2939 18.9631L30.0312 19.7004C30.4969 19.2348 30.8655 18.6872 31.1372 18.0576C31.4088 17.4281 31.5446 16.7555 31.5446 16.0397C31.5446 15.324 31.4088 14.6514 31.1372 14.0218C30.8655 13.3923 30.4969 12.8447 30.0312 12.3791ZM28.5695 13.8408L27.8322 14.5781C28.0219 14.7678 28.1707 14.9877 28.2785 15.2378C28.3863 15.4878 28.4402 15.7552 28.4402 16.0397C28.4402 16.3243 28.3863 16.5917 28.2785 16.8417C28.1707 17.0918 28.0219 17.3117 27.8322 17.5014L28.5695 18.2387C28.8455 17.9628 29.0654 17.6351 29.2292 17.2557C29.3931 16.8762 29.475 16.4709 29.475 16.0397C29.475 15.6086 29.3931 15.2033 29.2292 14.8238C29.0654 14.4444 28.8455 14.1167 28.5695 13.8408ZM25.3357 11.9005V20.179H26.3705V17.0746C26.6551 17.0746 26.8987 16.9732 27.1014 16.7706C27.304 16.5679 27.4053 16.3243 27.4053 16.0397C27.4053 15.7552 27.304 15.5116 27.1014 15.3089C26.8987 15.1063 26.6551 15.0049 26.3705 15.0049V11.9005H25.3357Z" fill="currentColor"/>
</g>
</svg>