<svg width="29" height="27" viewBox="0 0 29 27" fill="currentColor" xmlns="http://www.w3.org/2000/svg">
<path d="M8.14794 26.2245C7.30316 26.201 6.49944 25.9839 5.73679 25.5733C4.97413 25.1626 4.25255 24.5583 3.57202 23.7605C2.63337 22.6341 1.90005 21.2907 1.37206 19.7302C0.844073 18.1697 0.580078 16.5681 0.580078 14.9255C0.580078 12.9778 0.949672 11.1474 1.68886 9.43435C2.42805 7.72131 3.43123 6.23121 4.6984 4.96403C5.96558 3.69685 7.45569 2.69367 9.16873 1.95448C10.8818 1.2153 12.7121 0.845703 14.6598 0.845703C16.6075 0.845703 18.4379 1.22116 20.1509 1.97208C21.864 2.723 23.3541 3.74379 24.6213 5.03443C25.8884 6.32507 26.8916 7.83865 27.6308 9.57515C28.37 11.3117 28.7396 13.1772 28.7396 15.1719C28.7396 16.9788 28.4462 18.6683 27.8596 20.2406C27.2729 21.8128 26.4399 23.1386 25.3604 24.2181C24.7034 24.8751 24.0111 25.3738 23.2837 25.7141C22.5562 26.0543 21.817 26.2245 21.0661 26.2245C20.6437 26.2245 20.2213 26.1717 19.7989 26.0661C19.3765 25.9605 18.9541 25.8021 18.5318 25.5909L16.5606 24.6053C16.279 24.4645 15.9798 24.3589 15.663 24.2885C15.3462 24.2181 15.0118 24.1829 14.6598 24.1829C14.3078 24.1829 13.9734 24.2181 13.6566 24.2885C13.3399 24.3589 13.0407 24.4645 12.7591 24.6053L10.7879 25.5909C10.342 25.8255 9.90205 25.9957 9.46792 26.1013C9.03379 26.2069 8.5938 26.2479 8.14794 26.2245ZM8.21834 23.4085C8.42954 23.4085 8.6466 23.385 8.86953 23.3381C9.09246 23.2912 9.30952 23.209 9.52072 23.0917L11.4919 22.1061C11.9847 21.848 12.4951 21.6603 13.0231 21.5429C13.551 21.4256 14.0849 21.3669 14.6246 21.3669C15.1644 21.3669 15.7041 21.4256 16.2438 21.5429C16.7835 21.6603 17.2998 21.848 17.7926 22.1061L19.7989 23.0917C20.0101 23.209 20.2213 23.2912 20.4325 23.3381C20.6437 23.385 20.8549 23.4085 21.0661 23.4085C21.512 23.4085 21.9344 23.2912 22.3333 23.0565C22.7322 22.8218 23.1311 22.4699 23.5301 22.0005C24.281 21.1088 24.8676 20.0411 25.29 18.7974C25.7124 17.5537 25.9236 16.2748 25.9236 14.9607C25.9236 11.8162 24.8324 9.14689 22.6501 6.9528C20.4677 4.7587 17.8043 3.66165 14.6598 3.66165C11.5153 3.66165 8.85193 4.76457 6.66957 6.97039C4.48721 9.17622 3.39603 11.8514 3.39603 14.9959C3.39603 16.3334 3.61309 17.6358 4.04722 18.903C4.48134 20.1702 5.0856 21.2379 5.85998 22.1061C6.25891 22.5755 6.6461 22.9098 7.02156 23.1093C7.39702 23.3088 7.79595 23.4085 8.21834 23.4085ZM14.6598 17.7414C15.4342 17.7414 16.0971 17.4657 16.6486 16.9142C17.2 16.3628 17.4758 15.6998 17.4758 14.9255C17.4758 14.7377 17.4582 14.55 17.423 14.3623C17.3878 14.1745 17.335 13.9868 17.2646 13.7991L19.0246 11.4407C19.2592 11.7458 19.4645 12.0684 19.6405 12.4087C19.8165 12.749 19.9632 13.1186 20.0805 13.5175H22.9669C22.6149 11.4524 21.6586 9.76288 20.0981 8.44877C18.5376 7.13466 16.7249 6.4776 14.6598 6.4776C12.5948 6.4776 10.7762 7.14052 9.20393 8.46637C7.63169 9.79221 6.6813 11.4759 6.35278 13.5175H9.23912C9.56765 12.2503 10.2364 11.2295 11.2455 10.4551C12.2545 9.68075 13.3926 9.29355 14.6598 9.29355C15.0588 9.29355 15.4342 9.32875 15.7862 9.39915C16.1382 9.46955 16.4785 9.57515 16.807 9.71595L15.0118 12.1447C14.9649 12.1447 14.9062 12.1388 14.8358 12.1271C14.7654 12.1154 14.7068 12.1095 14.6598 12.1095C13.8854 12.1095 13.2225 12.3852 12.6711 12.9367C12.1196 13.4881 11.8439 14.1511 11.8439 14.9255C11.8439 15.6998 12.1196 16.3628 12.6711 16.9142C13.2225 17.4657 13.8854 17.7414 14.6598 17.7414Z" fill="currentColor"/>
</svg>
