<?xml version="1.0" encoding="utf-8"?>
<svg fill="none" height="29" viewBox="0 0 32 29" width="32" xmlns="http://www.w3.org/2000/svg">
<path d="M8.8698 28.4135C7.9448 28.3879 7.06476 28.1502 6.22969 27.7005C5.39462 27.2509 4.60452 26.5892 3.85938 25.7156C2.8316 24.4823 2.02865 23.0113 1.45052 21.3026C0.872398 19.5939 0.583336 17.8403 0.583336 16.0417C0.583336 13.909 0.988023 11.9049 1.7974 10.0292C2.60677 8.15347 3.70521 6.52188 5.09271 5.13438C6.48021 3.74688 8.11181 2.64844 9.9875 1.83906C11.8632 1.02969 13.8674 0.625 16 0.625C18.1326 0.625 20.1368 1.03611 22.0125 1.85833C23.8882 2.68056 25.5198 3.79826 26.9073 5.21146C28.2948 6.62465 29.3932 8.28195 30.2026 10.1833C31.012 12.0847 31.4167 14.1274 31.4167 16.3115C31.4167 18.2899 31.0955 20.1399 30.4531 21.8615C29.8108 23.583 28.8986 25.0347 27.7167 26.2167C26.9972 26.9361 26.2392 27.4821 25.4427 27.8547C24.6462 28.2273 23.8368 28.4135 23.0146 28.4135C22.5521 28.4135 22.0896 28.3557 21.6271 28.2401C21.1646 28.1245 20.7021 27.951 20.2396 27.7198L18.0813 26.6406C17.7729 26.4865 17.4453 26.3708 17.0984 26.2938C16.7516 26.2167 16.3854 26.1781 16 26.1781C15.6146 26.1781 15.2484 26.2167 14.9016 26.2938C14.5547 26.3708 14.2271 26.4865 13.9188 26.6406L11.7604 27.7198C11.2722 27.9767 10.7905 28.163 10.3151 28.2787C9.83976 28.3943 9.35799 28.4392 8.8698 28.4135ZM16 19.125C16.8479 19.125 17.5738 18.8231 18.1776 18.2193C18.7814 17.6155 19.0833 16.8896 19.0833 16.0417C19.0833 15.8361 19.0641 15.6306 19.0255 15.425C18.987 15.2194 18.9292 15.0139 18.8521 14.8083L20.7792 12.226C21.0361 12.5601 21.2609 12.9134 21.4537 13.2859C21.6464 13.6585 21.807 14.0632 21.9354 14.5H25.0958C24.7104 12.2389 23.6634 10.3889 21.9547 8.95C20.246 7.51111 18.2611 6.79167 16 6.79167C13.7389 6.79167 11.7476 7.51754 10.026 8.96927C8.30452 10.421 7.26389 12.2646 6.90417 14.5H10.0646C10.4243 13.1125 11.1566 11.9948 12.2615 11.1469C13.3663 10.299 14.6125 9.875 16 9.875C16.4368 9.875 16.8479 9.91354 17.2333 9.99063C17.6188 10.0677 17.9913 10.1833 18.351 10.3375L16.3854 12.9969C16.334 12.9969 16.2698 12.9905 16.1927 12.9776C16.1156 12.9648 16.0514 12.9583 16 12.9583C15.1521 12.9583 14.4262 13.2602 13.8224 13.8641C13.2186 14.4679 12.9167 15.1938 12.9167 16.0417C12.9167 16.8896 13.2186 17.6155 13.8224 18.2193C14.4262 18.8231 15.1521 19.125 16 19.125Z" fill="currentColor"/>
</svg>