<?xml version="1.0" encoding="utf-8"?>
<svg fill="currentColor" height="24" viewBox="0 0 22 24" width="22" xmlns="http://www.w3.org/2000/svg">
<path d="M10.0642 23.5C8.80131 23.5 7.73621 22.5592 7.58034 21.3059L7.49207 20.5963C7.43262 20.1183 7.10555 19.7264 6.69465 19.475C6.28453 19.2241 5.77995 19.1582 5.33705 19.3452L4.72149 19.6052C3.53661 20.1055 2.16461 19.6443 1.52259 18.5298L0.608629 16.9432C-0.0252848 15.8428 0.256774 14.4428 1.26734 13.6737L2.13657 13.0121C2.32794 12.8665 2.41791 12.6286 2.41791 12.3881V11.6119C2.41791 11.3714 2.32794 11.1335 2.13657 10.9879L1.26734 10.3263C0.256774 9.55721 -0.0252854 8.15719 0.608629 7.05677L1.52259 5.47022C2.16461 4.35573 3.53661 3.8945 4.72149 4.39484L5.32596 4.65009C5.77574 4.84002 6.28776 4.77193 6.70895 4.525C7.11923 4.28448 7.43173 3.88888 7.49043 3.41693L7.57685 2.72209C7.73472 1.45283 8.81341 0.5 10.0925 0.5H11.9358C13.1987 0.5 14.2638 1.44083 14.4197 2.6941L14.5079 3.40374C14.5674 3.88175 14.8944 4.27364 15.3053 4.525C15.7155 4.77589 16.22 4.8418 16.663 4.65477L17.2785 4.39484C18.4634 3.8945 19.8354 4.35573 20.4774 5.47022L21.3914 7.05677C22.0253 8.15719 21.7432 9.55721 20.7327 10.3263L19.8634 10.9879C19.6721 11.1335 19.5821 11.3714 19.5821 11.6119V12.3881C19.5821 12.6255 19.6492 12.8708 19.8381 13.0146L20.8118 13.7557C21.7608 14.4779 22.0256 15.7926 21.4304 16.8259L20.4406 18.544C19.8037 19.6495 18.4415 20.1052 17.2677 19.6053L16.6731 19.3521C16.2241 19.1609 15.712 19.2282 15.291 19.475C14.8808 19.7155 14.5683 20.1111 14.5096 20.5831L14.4231 21.2779C14.2653 22.5472 13.1866 23.5 11.9075 23.5H10.0642ZM11.0572 16.025C12.1633 16.025 13.1074 15.6321 13.8893 14.8463C14.6712 14.0604 15.0622 13.1117 15.0622 12C15.0622 10.8883 14.6712 9.93958 13.8893 9.15375C13.1074 8.36792 12.1633 7.975 11.0572 7.975C9.93201 7.975 8.98321 8.36792 8.21082 9.15375C7.43843 9.93958 7.05224 10.8883 7.05224 12C7.05224 13.1117 7.43843 14.0604 8.21082 14.8463C8.98321 15.6321 9.93201 16.025 11.0572 16.025Z" fill="currentColor"/>
</svg>