<svg width="13" height="14" viewBox="0 0 13 14" fill="none" xmlns="http://www.w3.org/2000/svg">
<path fill-rule="evenodd" clip-rule="evenodd" d="M9.50837 3.25653C9.23659 3.25653 9.01122 3.03509 9.01122 2.76805V1.97085C8.49816 1.95392 7.89561 1.95392 7.18833 1.95392H5.8626C5.15465 1.95392 4.55277 1.95392 4.03971 1.97085V2.76805C4.03971 3.03509 3.81433 3.25653 3.54256 3.25653C3.27078 3.25653 3.04541 3.03509 3.04541 2.76805V2.04119C2.419 2.1213 1.98879 2.27566 1.68653 2.57266C1.28748 2.96475 1.14165 3.57567 1.08796 4.55914H11.963C11.9093 3.57567 11.7628 2.96475 11.3644 2.57266C11.0621 2.27566 10.6319 2.1213 10.0055 2.04119V2.76805C10.0055 3.03509 9.78015 3.25653 9.50837 3.25653ZM11.9901 5.5361C11.9937 5.88043 11.995 6.26036 11.9941 6.67589V7.3272C11.9941 7.59423 12.2195 7.81568 12.4913 7.81568C12.7631 7.81568 12.9884 7.59423 12.9884 7.3272V6.67589C12.9884 4.08369 12.9884 2.78759 12.067 1.88228C11.5553 1.37947 10.9203 1.15607 10.0055 1.05642V0.48848C10.0055 0.221444 9.78015 0 9.50837 0C9.23659 0 9.01122 0.221444 9.01122 0.48848V0.993242C8.48358 0.976959 7.88103 0.976959 7.18833 0.976959H5.8626C5.16924 0.976959 4.56735 0.976959 4.03971 0.993242V0.48848C4.03971 0.221444 3.81433 0 3.54256 0C3.27078 0 3.04541 0.221444 3.04541 0.48848V1.05642C2.13065 1.15607 1.49562 1.37947 0.983886 1.88228C0.0624999 2.78759 0.0625 4.0902 0.0625 6.67589V7.9785C0.0625 10.5707 0.0624999 11.8668 0.983886 12.7721C1.90527 13.6774 3.22438 13.6774 5.8626 13.6774C6.13437 13.6774 6.35975 13.456 6.35975 13.189C6.35975 12.9219 6.13437 12.7005 5.8626 12.7005C3.50278 12.7005 2.31625 12.7005 1.68653 12.0817C1.0568 11.463 1.0568 10.2972 1.0568 7.9785V6.67589C1.05636 6.26079 1.05746 5.88086 1.06012 5.5361H11.9901ZM9.8398 14.0031C8.10309 14.0031 6.69118 12.6158 6.69118 10.9094C6.69118 9.20296 8.10309 7.81568 9.8398 7.81568C11.5765 7.81568 12.9884 9.20296 12.9884 10.9094C12.9884 12.6158 11.5765 14.0031 9.8398 14.0031ZM9.8398 8.79263C8.65327 8.79263 7.68548 9.74354 7.68548 10.9094C7.68548 12.0752 8.65327 13.0261 9.8398 13.0261C11.0263 13.0261 11.9941 12.0752 11.9941 10.9094C11.9941 9.74354 11.0263 8.79263 9.8398 8.79263ZM10.1514 11.9059C10.2508 12.0036 10.3767 12.0492 10.5027 12.0492C10.6286 12.0492 10.7546 12.0036 10.854 11.9059C11.0462 11.717 11.0462 11.4044 10.854 11.2155L10.337 10.7075V9.60677C10.337 9.33973 10.1116 9.11829 9.8398 9.11829C9.56803 9.11829 9.34265 9.33973 9.34265 9.60677V10.9094C9.34265 11.0396 9.39568 11.1634 9.48848 11.2546L10.1514 11.9059Z" fill="#3FDE7F"/>
</svg>
