<svg width="73" height="72" viewBox="0 0 73 72" fill="none" xmlns="http://www.w3.org/2000/svg">
<mask id="mask0_608_1129" style="mask-type:alpha" maskUnits="userSpaceOnUse" x="0" y="0" width="73" height="72">
<rect x="0.861877" width="71.51" height="71.51" fill="#D9D9D9"/>
</mask>
<g mask="url(#mask0_608_1129)">
<path d="M33.6373 53.6324C31.9917 53.6324 30.6577 52.2984 30.6577 50.6529V50.6529C30.6577 49.0073 31.9917 47.6733 33.6373 47.6733H39.5965C41.242 47.6733 42.576 49.0073 42.576 50.6529V50.6529C42.576 52.2984 41.242 53.6324 39.5965 53.6324H33.6373ZM21.719 38.7345C20.0734 38.7345 18.7394 37.4005 18.7394 35.7549V35.7549C18.7394 34.1094 20.0734 32.7754 21.719 32.7754H51.5148C53.1604 32.7754 54.4944 34.1094 54.4944 35.7549V35.7549C54.4944 37.4005 53.1604 38.7345 51.5148 38.7345H21.719ZM12.7802 23.8366C11.1346 23.8366 9.80063 22.5026 9.80063 20.857V20.857C9.80063 19.2114 11.1346 17.8774 12.7802 17.8774H60.4535C62.0991 17.8774 63.4331 19.2114 63.4331 20.857V20.857C63.4331 22.5026 62.0991 23.8366 60.4535 23.8366H12.7802Z" fill="black"/>
</g>
</svg>
