<svg width="72" height="72" viewBox="0 0 72 72" fill="none" xmlns="http://www.w3.org/2000/svg">
<mask id="mask0_608_1132" style="mask-type:alpha" maskUnits="userSpaceOnUse" x="0" y="0" width="72" height="72">
<rect width="71.51" height="71.51" fill="#D9D9D9"/>
</mask>
<g mask="url(#mask0_608_1132)">
<path d="M32.7754 53.6324C31.1298 53.6324 29.7958 52.2984 29.7958 50.6529V50.6529C29.7958 49.0073 31.1298 47.6733 32.7754 47.6733H38.7346C40.3801 47.6733 41.7141 49.0073 41.7141 50.6529V50.6529C41.7141 52.2984 40.3801 53.6324 38.7346 53.6324H32.7754ZM20.8571 38.7345C19.2115 38.7345 17.8775 37.4005 17.8775 35.7549V35.7549C17.8775 34.1094 19.2115 32.7754 20.8571 32.7754H50.6529C52.2985 32.7754 53.6325 34.1094 53.6325 35.7549V35.7549C53.6325 37.4005 52.2985 38.7345 50.6529 38.7345H20.8571ZM11.9183 23.8366C10.2727 23.8366 8.93872 22.5026 8.93872 20.857V20.857C8.93872 19.2114 10.2727 17.8774 11.9183 17.8774H59.5916C61.2372 17.8774 62.5712 19.2114 62.5712 20.857V20.857C62.5712 22.5026 61.2372 23.8366 59.5916 23.8366H11.9183Z" fill="black"/>
</g>
</svg>
