<svg width="72" height="72" viewBox="0 0 72 72" fill="none" xmlns="http://www.w3.org/2000/svg">
<mask id="mask0_608_1135" style="mask-type:alpha" maskUnits="userSpaceOnUse" x="0" y="0" width="72" height="72">
<rect width="71.51" height="71.51" fill="#D9D9D9"/>
</mask>
<g mask="url(#mask0_608_1135)">
<path d="M10.9592 65.5509C8.19774 65.5509 5.95917 63.3123 5.95917 60.5509V52.6734C5.95917 49.912 8.19774 47.6734 10.9592 47.6734H18.8367C21.5981 47.6734 23.8367 49.912 23.8367 52.6734V60.5509C23.8367 63.3123 21.5981 65.5509 18.8367 65.5509H10.9592ZM31.8163 65.5509C29.0548 65.5509 26.8163 63.3123 26.8163 60.5509V52.6734C26.8163 49.912 29.0548 47.6734 31.8162 47.6734H39.6937C42.4552 47.6734 44.6937 49.912 44.6937 52.6734V60.5509C44.6937 63.3123 42.4552 65.5509 39.6938 65.5509H31.8163ZM52.6733 65.5509C49.9119 65.5509 47.6733 63.3123 47.6733 60.5509V52.6734C47.6733 49.912 49.9119 47.6734 52.6733 47.6734H60.5508C63.3123 47.6734 65.5508 49.912 65.5508 52.6734V60.5509C65.5508 63.3123 63.3123 65.5509 60.5508 65.5509H52.6733ZM10.9592 44.6938C8.19774 44.6938 5.95917 42.4552 5.95917 39.6938V31.8163C5.95917 29.0549 8.19774 26.8163 10.9592 26.8163H18.8367C21.5981 26.8163 23.8367 29.0549 23.8367 31.8163V39.6938C23.8367 42.4552 21.5981 44.6938 18.8367 44.6938H10.9592ZM31.8163 44.6938C29.0548 44.6938 26.8163 42.4552 26.8163 39.6938V31.8163C26.8163 29.0549 29.0548 26.8163 31.8162 26.8163H39.6937C42.4552 26.8163 44.6937 29.0549 44.6937 31.8163V39.6938C44.6937 42.4552 42.4552 44.6938 39.6938 44.6938H31.8163ZM52.6733 44.6938C49.9119 44.6938 47.6733 42.4552 47.6733 39.6938V31.8163C47.6733 29.0549 49.9119 26.8163 52.6733 26.8163H60.5508C63.3123 26.8163 65.5508 29.0549 65.5508 31.8163V39.6938C65.5508 42.4552 63.3123 44.6938 60.5508 44.6938H52.6733ZM10.9592 23.8367C8.19774 23.8367 5.95917 21.5982 5.95917 18.8367V10.9592C5.95917 8.19781 8.19774 5.95923 10.9592 5.95923H18.8367C21.5981 5.95923 23.8367 8.1978 23.8367 10.9592V18.8367C23.8367 21.5982 21.5981 23.8367 18.8367 23.8367H10.9592ZM31.8163 23.8367C29.0548 23.8367 26.8163 21.5982 26.8163 18.8367V10.9592C26.8163 8.19781 29.0548 5.95923 31.8162 5.95923H39.6937C42.4552 5.95923 44.6937 8.1978 44.6937 10.9592V18.8367C44.6937 21.5982 42.4552 23.8367 39.6938 23.8367H31.8163ZM52.6733 23.8367C49.9119 23.8367 47.6733 21.5982 47.6733 18.8367V10.9592C47.6733 8.19781 49.9119 5.95923 52.6733 5.95923H60.5508C63.3123 5.95923 65.5508 8.1978 65.5508 10.9592V18.8367C65.5508 21.5982 63.3123 23.8367 60.5508 23.8367H52.6733ZM11.9183 56.6121C11.9183 58.2577 13.2523 59.5917 14.8979 59.5917V59.5917C16.5435 59.5917 17.8775 58.2577 17.8775 56.6121V56.6121C17.8775 54.9666 16.5435 53.6326 14.8979 53.6326V53.6326C13.2523 53.6326 11.9183 54.9666 11.9183 56.6121V56.6121ZM32.7754 56.6121C32.7754 58.2577 34.1094 59.5917 35.755 59.5917V59.5917C37.4006 59.5917 38.7346 58.2577 38.7346 56.6121V56.6121C38.7346 54.9666 37.4006 53.6326 35.755 53.6326V53.6326C34.1094 53.6326 32.7754 54.9666 32.7754 56.6121V56.6121ZM53.6325 56.6121C53.6325 58.2577 54.9665 59.5917 56.6121 59.5917V59.5917C58.2577 59.5917 59.5917 58.2577 59.5917 56.6121V56.6121C59.5917 54.9666 58.2577 53.6326 56.6121 53.6326V53.6326C54.9665 53.6326 53.6325 54.9666 53.6325 56.6121V56.6121ZM11.9183 35.7551C11.9183 37.4006 13.2523 38.7346 14.8979 38.7346V38.7346C16.5435 38.7346 17.8775 37.4006 17.8775 35.7551V35.7551C17.8775 34.1095 16.5435 32.7755 14.8979 32.7755V32.7755C13.2523 32.7755 11.9183 34.1095 11.9183 35.7551V35.7551ZM32.7754 35.7551C32.7754 37.4006 34.1094 38.7346 35.755 38.7346V38.7346C37.4006 38.7346 38.7346 37.4006 38.7346 35.7551V35.7551C38.7346 34.1095 37.4006 32.7755 35.755 32.7755V32.7755C34.1094 32.7755 32.7754 34.1095 32.7754 35.7551V35.7551ZM53.6325 35.7551C53.6325 37.4006 54.9665 38.7346 56.6121 38.7346V38.7346C58.2577 38.7346 59.5917 37.4006 59.5917 35.7551V35.7551C59.5917 34.1095 58.2577 32.7755 56.6121 32.7755V32.7755C54.9665 32.7755 53.6325 34.1095 53.6325 35.7551V35.7551ZM32.7754 14.898C32.7754 16.5436 34.1094 17.8776 35.755 17.8776V17.8776C37.4006 17.8776 38.7346 16.5436 38.7346 14.898V14.898C38.7346 13.2524 37.4006 11.9184 35.755 11.9184V11.9184C34.1094 11.9184 32.7754 13.2524 32.7754 14.898V14.898ZM53.6325 14.898C53.6325 16.5436 54.9665 17.8776 56.6121 17.8776V17.8776C58.2577 17.8776 59.5917 16.5436 59.5917 14.898V14.898C59.5917 13.2524 58.2577 11.9184 56.6121 11.9184V11.9184C54.9665 11.9184 53.6325 13.2524 53.6325 14.898V14.898Z" fill="black"/>
</g>
</svg>
