<svg width="72" height="72" viewBox="0 0 72 72" fill="none" xmlns="http://www.w3.org/2000/svg">
<mask id="mask0_608_1138" style="mask-type:alpha" maskUnits="userSpaceOnUse" x="0" y="0" width="72" height="72">
<rect width="71.51" height="71.51" fill="#D9D9D9"/>
</mask>
<g mask="url(#mask0_608_1138)">
<path d="M10.9592 65.5509C8.19774 65.5509 5.95917 63.3123 5.95917 60.5509V52.6734C5.95917 49.912 8.19774 47.6734 10.9592 47.6734H18.8367C21.5981 47.6734 23.8367 49.912 23.8367 52.6734V60.5509C23.8367 63.3123 21.5981 65.5509 18.8367 65.5509H10.9592ZM31.8163 65.5509C29.0548 65.5509 26.8163 63.3123 26.8163 60.5509V52.6734C26.8163 49.912 29.0548 47.6734 31.8162 47.6734H39.6937C42.4552 47.6734 44.6937 49.912 44.6937 52.6734V60.5509C44.6937 63.3123 42.4552 65.5509 39.6938 65.5509H31.8163ZM52.6733 65.5509C49.9119 65.5509 47.6733 63.3123 47.6733 60.5509V52.6734C47.6733 49.912 49.9119 47.6734 52.6733 47.6734H60.5508C63.3123 47.6734 65.5508 49.912 65.5508 52.6734V60.5509C65.5508 63.3123 63.3123 65.5509 60.5508 65.5509H52.6733ZM10.9592 44.6938C8.19774 44.6938 5.95917 42.4552 5.95917 39.6938V31.8163C5.95917 29.0549 8.19774 26.8163 10.9592 26.8163H18.8367C21.5981 26.8163 23.8367 29.0549 23.8367 31.8163V39.6938C23.8367 42.4552 21.5981 44.6938 18.8367 44.6938H10.9592ZM31.8163 44.6938C29.0548 44.6938 26.8163 42.4552 26.8163 39.6938V31.8163C26.8163 29.0549 29.0548 26.8163 31.8162 26.8163H39.6937C42.4552 26.8163 44.6937 29.0549 44.6937 31.8163V39.6938C44.6937 42.4552 42.4552 44.6938 39.6938 44.6938H31.8163ZM52.6733 44.6938C49.9119 44.6938 47.6733 42.4552 47.6733 39.6938V31.8163C47.6733 29.0549 49.9119 26.8163 52.6733 26.8163H60.5508C63.3123 26.8163 65.5508 29.0549 65.5508 31.8163V39.6938C65.5508 42.4552 63.3123 44.6938 60.5508 44.6938H52.6733ZM10.9592 23.8367C8.19774 23.8367 5.95917 21.5982 5.95917 18.8367V10.9592C5.95917 8.19781 8.19774 5.95923 10.9592 5.95923H18.8367C21.5981 5.95923 23.8367 8.1978 23.8367 10.9592V18.8367C23.8367 21.5982 21.5981 23.8367 18.8367 23.8367H10.9592ZM31.8163 23.8367C29.0548 23.8367 26.8163 21.5982 26.8163 18.8367V10.9592C26.8163 8.19781 29.0548 5.95923 31.8162 5.95923H39.6937C42.4552 5.95923 44.6937 8.1978 44.6937 10.9592V18.8367C44.6937 21.5982 42.4552 23.8367 39.6938 23.8367H31.8163ZM52.6733 23.8367C49.9119 23.8367 47.6733 21.5982 47.6733 18.8367V10.9592C47.6733 8.19781 49.9119 5.95923 52.6733 5.95923H60.5508C63.3123 5.95923 65.5508 8.1978 65.5508 10.9592V18.8367C65.5508 21.5982 63.3123 23.8367 60.5508 23.8367H52.6733Z" fill="black"/>
</g>
</svg>
